<?xml version="1.0" standalone="no"?><!DOCTYPE svg PUBLIC "-//W3C//DTD SVG 1.1//EN" "http://www.w3.org/Graphics/SVG/1.1/DTD/svg11.dtd"><svg t="1634637643327" class="icon" viewBox="0 0 1024 1024" version="1.1" xmlns="http://www.w3.org/2000/svg" p-id="4696" xmlns:xlink="http://www.w3.org/1999/xlink" width="200" height="200"><defs><style type="text/css"></style></defs><path d="M274.824 301.176a52.704 52.704 0 1 0 0 105.408 52.704 52.704 0 0 0 0-105.408z m158.12 0a52.704 52.704 0 1 0 0 105.408 52.704 52.704 0 0 0 0-105.408z m421.648-158.12H169.408C111.192 143.056 64 190.256 64 248.472v579.768a52.704 52.704 0 1 0 105.408 0V564.704h685.176v263.528a52.704 52.704 0 1 0 105.408 0v-579.76c0.008-58.216-47.184-105.416-105.4-105.416z m0 263.536a52.696 52.696 0 0 1-52.704 52.704H222.12a52.704 52.704 0 0 1-52.704-52.704V301.176a52.712 52.712 0 0 1 52.704-52.704h579.768a52.704 52.704 0 0 1 52.704 52.704v105.416zM591.056 301.176a52.704 52.704 0 1 0 0 105.408 52.704 52.704 0 0 0 0-105.408z m158.128 0a52.712 52.712 0 1 0 0 105.424 52.712 52.712 0 0 0 0-105.424z" p-id="4697"></path></svg>