<?xml version="1.0" standalone="no"?><!DOCTYPE svg PUBLIC "-//W3C//DTD SVG 1.1//EN" "http://www.w3.org/Graphics/SVG/1.1/DTD/svg11.dtd"><svg t="1634637593369" class="icon" viewBox="0 0 1024 1024" version="1.1" xmlns="http://www.w3.org/2000/svg" p-id="2681" xmlns:xlink="http://www.w3.org/1999/xlink" width="200" height="200"><defs><style type="text/css"></style></defs><path d="M228.83 237.06l41.83 41.65a34.708 34.708 0 0 1 10.23 24.6v417c0 9.23-3.68 18.07-10.23 24.6l-41.83 41.66c-13.64 13.58-13.64 35.61 0 49.19l53.77 53.54c13.64 13.58 35.76 13.58 49.4 0l102.5-102.06a34.708 34.708 0 0 0 10.23-24.6V260.98c0-9.23-3.68-18.07-10.23-24.6L332 134.32c-13.64-13.58-35.76-13.58-49.4 0l-53.77 53.54c-13.64 13.59-13.64 35.61 0 49.2z m525.51 41.65l41.83-41.65c13.64-13.58 13.64-35.61 0-49.19l-53.77-53.54c-13.64-13.59-35.76-13.59-49.41 0L590.51 236.38a34.708 34.708 0 0 0-10.23 24.6v501.66c0 9.23 3.68 18.07 10.23 24.6L693 889.29c13.64 13.58 35.76 13.58 49.4 0l53.76-53.54c13.64-13.58 13.64-35.61 0-49.19l-41.83-41.65a34.708 34.708 0 0 1-10.23-24.6v-417c0.01-9.23 3.69-18.07 10.24-24.6z" p-id="2682"></path></svg>