<svg t="1611894572703" class="icon" viewBox="0 0 1024 1024" version="1.1" xmlns="http://www.w3.org/2000/svg" p-id="2237" width="250" height="250"><path d="M512 921.6a409.6 409.6 0 1 1 409.6-409.6 410.0608 410.0608 0 0 1-409.6 409.6z m0-742.4a332.8 332.8 0 1 0 332.8 332.8A333.1584 333.1584 0 0 0 512 179.2z"  p-id="2238"></path><path d="M622.2848 451.84v120.32a50.1248 50.1248 0 0 1-50.1248 50.1248h-120.32a50.1248 50.1248 0 0 1-50.1248-50.1248v-120.32a50.1248 50.1248 0 0 1 50.1248-50.1248h120.32a50.1248 50.1248 0 0 1 50.1248 50.1248z"  p-id="2239"></path><path d="M572.16 622.2848h-120.32a50.176 50.176 0 0 1-50.1248-50.1248v-120.32a50.176 50.176 0 0 1 50.1248-50.1248h120.32a50.176 50.176 0 0 1 50.1248 50.1248v120.32a50.176 50.176 0 0 1-50.1248 50.1248z m-95.232-75.2128h70.1952V476.8768H476.928z"  p-id="2240"></path></svg>