<?xml version="1.0" standalone="no"?><!DOCTYPE svg PUBLIC "-//W3C//DTD SVG 1.1//EN" "http://www.w3.org/Graphics/SVG/1.1/DTD/svg11.dtd"><svg t="1634637632997" class="icon" viewBox="0 0 1024 1024" version="1.1" xmlns="http://www.w3.org/2000/svg" p-id="4569" xmlns:xlink="http://www.w3.org/1999/xlink" width="200" height="200"><defs><style type="text/css"></style></defs><path d="M705.6 803.2c-8 0-15.2-7.2-15.2-16V508c0-108-82.4-200-182.4-197.6-97.6 2.4-175.2 88-175.2 193.6v283.2c0 8.8-6.4 16-15.2 16H80c-8.8 0-16-7.2-16-16.8V574.4c0-9.6 7.2-16.8 16-16.8h112c0-186.4 143.2-336.8 320-336.8s320 151.2 320 336.8h112c8.8 0 16 7.2 16 16.8v212c0 9.6-7.2 16.8-16 16.8H705.6z m0 0" p-id="4570"></path></svg>