<svg t="1602664362465" class="icon" viewBox="0 0 1024 1024" version="1.1" xmlns="http://www.w3.org/2000/svg" p-id="2944"
    width="200" height="200">
    <path
        d="M691.6 569.8l-90.7-38.4s-13.2-13.6-15.1-31.8l0.7-12.9c21.3-14.4 37.3-36.1 47.4-61.7 30.6-0.8 31.1-74.5 16-82.3 5.3-60 5.2-163.1-133.6-164.4h-2.8c-138.8 1.3-138.9 104.5-133.6 164.4-15.1 7.9-14.6 81.6 16 82.3 10.1 25.6 26.1 47.3 47.4 61.7l0.7 12.9c-1.9 18.3-15.1 31.8-15.1 31.8l-90.7 38.4c-122.6 69.6-109.4 205.9-109.4 205.9s63 69.7 285.4 70.1h1.4C738 845.5 801 775.7 801 775.7s13.2-136.3-109.4-205.9z"
        p-id="2945"></path>
    <path
        d="M115.1 781.9C87.9 770.7 64 753.5 64 753.5s-1.5-77.3 36.9-125c13.4-16.7 30-31.2 47.7-41.1 14-7.8 76.7-34.7 76.7-34.7s7.7-4.5 11.1-13.3c3.7-9.7 3.2-23.8 3.2-23.8s-13.3-7.5-23.4-20.7c-9.7-12.6-16.2-30.8-16.2-30.8s-7.7-0.1-11.7-5.6c-10.1-14-11.2-32.3-8.5-46.1 1.7-8.8 6.8-14.7 6.8-14.7s-3.9-42.4 5.6-71.6c13.9-42.1 45.8-53.8 67.3-58.7 20.2-4.5 42.8-3.7 42.8-3.7s-5.8 80.1 9.3 139.7c10.8 42.8 44 78.6 44 78.6s-126.8 68.1-171.5 160.5c-55.2 113.1 3.7 164.9 3.7 164.9s-42.4-13.1-72.7-25.5zM908.9 803.2c27.2-11.1 51.1-28.4 51.1-28.4s1.5-77.3-36.9-125c-13.4-16.6-30-31.2-47.7-41.1-14-7.8-76.7-34.7-76.7-34.7s-7.7-4.5-11.1-13.3c-3.7-9.7-3.2-23.8-3.2-23.8s13.3-7.5 23.4-20.7c9.7-12.6 16.2-30.8 16.2-30.8s7.7-0.1 11.7-5.5c10.1-14.1 11.2-32.3 8.5-46.1-1.7-8.8-6.8-14.7-6.8-14.7s3.9-42.4-5.6-71.6c-13.9-42.1-45.8-53.8-67.3-58.7-20.2-4.6-42.8-3.8-42.8-3.8s5.8 80.1-9.2 139.7c-10.8 42.8-44 75.5-44 75.5S795.3 571.5 840 663.8c55.2 113.1-3.7 164.9-3.7 164.9s42.3-13.1 72.6-25.5z"
        p-id="2946"></path>
</svg>