<svg t="1599718704001" class="icon" viewBox="0 0 1026 1024" version="1.1" xmlns="http://www.w3.org/2000/svg" p-id="5564" width="200" height="200"><path d="M762.895778 855.140234H244.274118c-47.827448 0-86.436614-38.608176-86.436614-86.436613V250.081961c0-47.828438 38.608176-86.436614 86.436614-86.436614h518.62166c47.828438 0 86.437603 38.608176 86.437602 86.436614v518.62166c0 47.828438-38.608176 86.436614-86.437602 86.436613z" p-id="5565"></path><path d="M964.582199 405.668063c-22.474449 0-40.337284-17.862835-40.337285-40.337284V134.833143c0-25.354977-20.744352-46.100319-46.099329-46.100319H647.64696c-22.474449 0-40.337284-17.863824-40.337285-40.337284s17.863824-40.337284 40.337285-40.337284H878.145585c69.725199 0 126.773898 57.048699 126.773898 126.774887v230.497636c0 22.474449-17.863824 40.337284-40.337284 40.337284z m-86.436614 605.059263H647.64696c-22.474449 0-40.337284-17.864813-40.337285-40.337284s17.863824-40.337284 40.337285-40.337284H878.145585c25.354977 0 46.099329-20.745341 46.099329-46.100319V653.454803c0-22.474449 17.863824-40.337284 40.337285-40.337285s40.337284 17.862835 40.337284 40.337285v230.497636c0 69.726188-57.048699 126.774887-126.774887 126.774887z m-512.859615 0H134.787345c-69.725199 0-126.773898-57.048699-126.773898-126.774887V653.454803c0-22.474449 17.863824-40.337284 40.337284-40.337285s40.337284 17.862835 40.337284 40.337285v230.497636c0 25.354977 20.744352 46.100319 46.09933 46.100319h230.498625c22.474449 0 40.337284 17.863824 40.337284 40.337284s-17.863824 40.337284-40.337284 40.337284zM48.35172 405.668063c-22.474449 0-40.337284-17.862835-40.337284-40.337284V134.833143c0-69.726188 57.048699-126.774887 126.774887-126.774887h230.497636c22.474449 0 40.337284 17.864813 40.337285 40.337284s-17.863824 40.337284-40.337285 40.337284H134.787345c-25.354977 0-46.099329 20.745341-46.09933 46.100319v230.497636c0 22.474449-17.863824 40.337284-40.337284 40.337284z" p-id="5566"></path></svg>