<?xml version="1.0" standalone="no"?><!DOCTYPE svg PUBLIC "-//W3C//DTD SVG 1.1//EN" "http://www.w3.org/Graphics/SVG/1.1/DTD/svg11.dtd"><svg t="1634637658435" class="icon" viewBox="0 0 1024 1024" version="1.1" xmlns="http://www.w3.org/2000/svg" p-id="4954" xmlns:xlink="http://www.w3.org/1999/xlink" width="200" height="200"><defs><style type="text/css"></style></defs><path d="M930.4 96H93.6c-16 0-29.6 13.6-29.6 29.6v776.8c0 16.8 13.6 29.6 29.6 29.6s29.6-13.6 29.6-29.6v-448h776.8v448c0 16.8 13.6 29.6 29.6 29.6 16.8 0 29.6-13.6 29.6-29.6V125.6c0.8-16-12.8-29.6-28.8-29.6z m-751.2 60H248L213.6 216l-34.4-60z m0 119.2l-55.2 95.2V180l55.2 95.2z m34.4 60l34.4 60h-68.8l34.4-60z m100 54.4L248 275.2l66.4-114.4 2.4-4.8h92.8l2.4 4.8 66.4 114.4-66.4 114.4-2.4 4.8H316c-0.8-1.6-0.8-3.2-2.4-4.8z m164-233.6h68.8L512 215.2l-34.4-59.2zM512 335.2l34.4 60h-68.8l34.4-60z m100.8 54.4l-66.4-114.4 66.4-114.4 2.4-4.8h92.8l2.4 4.8L776 275.2l-66.4 114.4-2.4 4.8H614.4c0-1.6-0.8-3.2-1.6-4.8z m287.2-19.2l-55.2-95.2 55.2-95.2v190.4z m-89.6-155.2L776 156h68.8l-34.4 59.2z m0 120l34.4 60H776l34.4-60z" p-id="4955"></path></svg>