<svg t="1615953283430" class="icon" viewBox="0 0 1035 1024" version="1.1" xmlns="http://www.w3.org/2000/svg" p-id="2285"
    width="250" height="250">
    <path
        d="M348.16 962.765c-15.36 0-30.72-5.12-40.96-20.48-20.48-20.48-15.36-56.32 5.12-71.68l445.44-378.88-430.08-358.4c-20.48-20.48-25.6-51.2-5.12-71.68 20.48-20.48 51.2-25.6 71.68-5.12l481.28 399.36c5.12 10.24 15.36 25.6 15.36 40.96s-5.12 30.72-20.48 40.96l-491.52 419.84c-5.12 5.12-20.48 5.12-30.72 5.12z"
        p-id="2286"></path>
    <path d="M10.24 15.565L640 501.965l-640 512 10.24-998.4z" p-id="2287"></path>
</svg>