<svg t="1605251525026" class="icon" viewBox="0 0 1024 1024" version="1.1" xmlns="http://www.w3.org/2000/svg" p-id="2873" width="200" height="200"><path d="M694.857143 768v73.142857c0 20.004571-16.566857 36.571429-36.571429 36.571429H365.714286c-20.004571 0-36.571429-16.566857-36.571429-36.571429v-73.142857c0-20.004571 16.566857-36.571429 36.571429-36.571429h36.571428v-219.428571H365.714286c-20.004571 0-36.571429-16.566857-36.571429-36.571429v-73.142857c0-20.004571 16.566857-36.571429 36.571429-36.571428h219.428571c20.004571 0 36.571429 16.566857 36.571429 36.571428v329.142857h36.571428c20.004571 0 36.571429 16.566857 36.571429 36.571429zM621.714286 109.714286v109.714285c0 20.004571-16.566857 36.571429-36.571429 36.571429H438.857143c-20.004571 0-36.571429-16.566857-36.571429-36.571429V109.714286c0-20.004571 16.566857-36.571429 36.571429-36.571429h146.285714c20.004571 0 36.571429 16.566857 36.571429 36.571429z" fill="" p-id="2874"></path></svg>