<?xml version="1.0" standalone="no"?><!DOCTYPE svg PUBLIC "-//W3C//DTD SVG 1.1//EN" "http://www.w3.org/Graphics/SVG/1.1/DTD/svg11.dtd"><svg t="1634881196254" class="icon" viewBox="0 0 1024 1024" version="1.1" xmlns="http://www.w3.org/2000/svg" p-id="2426" xmlns:xlink="http://www.w3.org/1999/xlink" width="200" height="200"><defs><style type="text/css"></style></defs><path d="M857.088 750.10048l-331.776-574.464a29.696 29.696 0 0 0-51.44576 0l-331.776 574.464A29.696 29.696 0 0 0 167.936 794.624h663.552a29.696 29.696 0 0 0 25.6-44.52352zM309.248 774.144A88.064 88.064 0 1 1 397.312 686.08 88.064 88.064 0 0 1 309.248 774.144z m190.464-335.872a88.064 88.064 0 1 1 88.064-88.064A88.064 88.064 0 0 1 499.712 438.272z m188.416 335.872a88.064 88.064 0 1 1 88.064-88.064A88.064 88.064 0 0 1 688.128 774.144z" p-id="2427"></path></svg>