<svg t="1612343558246" class="icon" viewBox="0 0 1365 1024" version="1.1" xmlns="http://www.w3.org/2000/svg" p-id="612" width="250" height="250"><path d="M768 227.555556l-135.822222 158.435555-14.051556-6.627555C603.505778 372.167111 585.955556 369.777778 571.335111 369.777778c-45.027556 0-84.622222 17.720889-87.608889 55.267555l-0.170666 4.608V725.333333L369.777778 1024H89.031111c-48.583111 0-86.158222-28.245333-88.860444-65.877333L0 953.713778V227.555556h768z m597.333333 0v726.186666c0 38.343111-35.783111 67.982222-83.484444 70.144L1276.302222 1024H398.222222l118.698667-209.948444c15.189333 7.281778 34.247111 10.837333 54.414222 10.837333 15.36 0 28.444444-1.820444 41.301333-7.111111l5.489778-2.474667 333.539556-158.094222c56.860444-25.6 58.481778-89.6 4.864-117.390222l-4.835556-2.360889-219.619555-104.106667L768 369.777778l142.222222-142.222222h455.111111zM397.255111 0L597.333333 199.111111h-226.56L170.666667 0h226.588444zM1006.364444 11.747556L1194.666667 199.111111h-226.588445l-45.568-45.340444L938.666667 56.888889 1006.364444 11.747556zM681.699556 0l114.659555 114.119111L775.111111 199.111111h-119.921778L455.111111 0h226.588445z m593.351111 0c49.351111 0 87.466667 30.094222 90.140444 70.172444l0.142222 4.494223V199.111111h-108.316444L1052.444444 0h222.634667zM102.257778 0L312.888889 199.111111H0V74.666667C0 33.877333 37.461333 2.332444 87.324444 0.142222L92.956444 0h9.301334zM824.888889 0l-11.320889 45.340444L768 0h56.888889z" p-id="613"></path></svg>