<?xml version="1.0" standalone="no"?><!DOCTYPE svg PUBLIC "-//W3C//DTD SVG 1.1//EN" "http://www.w3.org/Graphics/SVG/1.1/DTD/svg11.dtd"><svg t="1635151168460" class="icon" viewBox="0 0 1024 1024" version="1.1" xmlns="http://www.w3.org/2000/svg" p-id="2836" xmlns:xlink="http://www.w3.org/1999/xlink" width="200" height="200"><defs><style type="text/css"></style></defs><path d="M244.833524 988.16l92.501333 0L337.334857 1024l344.015238 0 0-35.84 92.550095 0 0-77.604571 65.121524 0c30.524952 0 73.801143-64.536381 83.870476-87.430095 9.435429-21.23581 36.08381-118.247619-12.775619-118.247619l-136.216381 0L773.90019 603.428571l65.121524 0c30.524952 0 73.776762-64.536381 83.870476-87.430095 9.435429-21.23581 36.08381-118.198857-12.775619-118.198857l-136.216381 0 0-101.497905 65.121524 0c30.500571 0 73.776762-64.560762 83.870476-87.430095 9.435429-21.23581 36.08381-118.247619-12.775619-118.247619l-136.216381 0L773.90019 52.638476l37.766095 0L811.666286 0 206.994286 0l0 52.638476 37.814857 0 0 38.009905-130.925714 0c-48.835048 0-22.25981 96.963048-12.8 118.198857 10.093714 22.869333 53.394286 87.478857 83.919238 87.478857l59.830857 0 0 101.497905-130.925714 0c-48.835048 0-22.25981 96.914286-12.824381 118.150095C111.177143 538.819048 154.453333 603.428571 185.002667 603.428571l59.830857 0 0 101.473524-130.925714 0c-48.859429 0-22.25981 96.963048-12.824381 118.198857 10.093714 22.869333 53.394286 87.478857 83.919238 87.478857l59.830857 0L244.833524 988.16 244.833524 988.16 244.833524 988.16zM628.638476 807.789714c0 66.023619-52.224 119.56419-116.638476 119.56419-64.365714 0-116.614095-53.540571-116.614095-119.56419S447.634286 688.225524 512 688.225524C576.438857 688.225524 628.638476 741.766095 628.638476 807.789714L628.638476 807.789714 628.638476 807.789714zM628.638476 525.994667c0 66.023619-52.224 119.588571-116.638476 119.588571-64.365714 0-116.614095-53.564952-116.614095-119.588571 0-66.048 52.248381-119.588571 116.614095-119.588571C576.438857 406.406095 628.638476 459.946667 628.638476 525.994667L628.638476 525.994667 628.638476 525.994667zM628.638476 244.199619c0 66.023619-52.224 119.588571-116.638476 119.588571-64.365714 0-116.614095-53.564952-116.614095-119.588571S447.634286 124.611048 512 124.611048C576.438857 124.611048 628.638476 178.176 628.638476 244.199619L628.638476 244.199619z" p-id="2837"></path></svg>