<?xml version="1.0" standalone="no"?><!DOCTYPE svg PUBLIC "-//W3C//DTD SVG 1.1//EN" "http://www.w3.org/Graphics/SVG/1.1/DTD/svg11.dtd"><svg t="1634636979027" class="icon" viewBox="0 0 1024 1024" version="1.1" xmlns="http://www.w3.org/2000/svg" p-id="2299" xmlns:xlink="http://www.w3.org/1999/xlink" width="200" height="200"><defs><style type="text/css"></style></defs><path d="M542.47764 103.733573l-67.121723 0-6.16542 133.092227 79.393211 0L542.47764 103.733573zM551.635207 303.357076l-85.526909 0-12.32777 266.12101L563.842227 569.478086 551.635207 303.357076zM450.698331 636.007315l-12.329816 266.156826 140.736325 0-12.21009-266.156826L450.698331 636.007315zM171.732781 199.804628C141.887033 288.61328 64.696999 601.922009 28.706297 716.196659c-36.430724 115.581412-12.812817 181.859931 76.80834 181.859931l168.706353 0 127.509069-795.526425c-72.119551 0-127.555118 0-127.555118 0C218.694349 106.748233 201.613322 110.988814 171.732781 199.804628zM997.388411 728.869283c-21.363564-63.430658-106.677625-436.043051-132.276652-516.393054-25.610284-80.348979-76.807317-109.946065-149.346423-109.946065L612.468714 102.530165l128.830157 795.526425 200.610994 0C1027.233136 898.05659 1018.717182 792.298917 997.388411 728.869283z" p-id="2300"></path></svg>