<?xml version="1.0" standalone="no"?><!DOCTYPE svg PUBLIC "-//W3C//DTD SVG 1.1//EN" "http://www.w3.org/Graphics/SVG/1.1/DTD/svg11.dtd"><svg t="1634720983094" class="icon" viewBox="0 0 1024 1024" version="1.1" xmlns="http://www.w3.org/2000/svg" p-id="1587" xmlns:xlink="http://www.w3.org/1999/xlink" width="200" height="200"><defs><style type="text/css"></style></defs><path d="M790.698667 171.690667A60.0064 60.0064 0 0 0 735.744 136.533333h-539.306667c-23.893333 0-45.056 13.482667-55.125333 35.157334-10.069333 21.674667-6.826667 46.421333 8.533333 64.682666L339.626667 461.824v301.738667c0 28.501333 16.896 54.101333 43.178666 65.194666l136.021334 58.197334c6.656 2.901333 13.653333 4.266667 20.821333 4.266666 10.24 0 20.309333-2.901333 29.013333-8.704a52.565333 52.565333 0 0 0 23.722667-44.032V461.824l189.781333-225.450667c15.36-18.261333 18.602667-43.008 8.533334-64.682666zM524.117333 436.906667v378.026666L409.6 766.122667c-1.024-0.512-1.706667-1.365333-1.706667-2.56V436.906667L212.650667 204.8h507.050666L524.117333 436.906667zM853.333333 745.130667h-110.592c-18.773333 0-34.133333 15.36-34.133333 34.133333s15.36 34.133333 34.133333 34.133333H853.333333c18.773333 0 34.133333-15.36 34.133334-34.133333s-15.36-34.133333-34.133334-34.133333zM853.333333 597.504h-110.592c-18.773333 0-34.133333 15.36-34.133333 34.133333s15.36 34.133333 34.133333 34.133334H853.333333c18.773333 0 34.133333-15.36 34.133334-34.133334s-15.36-34.133333-34.133334-34.133333z" p-id="1588"></path><path d="M708.608 484.181333c0 18.773333 15.36 34.133333 34.133333 34.133334H853.333333c18.773333 0 34.133333-15.36 34.133334-34.133334s-15.36-34.133333-34.133334-34.133333h-110.592a34.133333 34.133333 0 0 0-34.133333 34.133333z" p-id="1589"></path></svg>