<?xml version="1.0" standalone="no"?><!DOCTYPE svg PUBLIC "-//W3C//DTD SVG 1.1//EN" "http://www.w3.org/Graphics/SVG/1.1/DTD/svg11.dtd"><svg t="1634636990331" class="icon" viewBox="0 0 1024 1024" version="1.1" xmlns="http://www.w3.org/2000/svg" p-id="2426" xmlns:xlink="http://www.w3.org/1999/xlink" width="200" height="200"><defs><style type="text/css"></style></defs><path d="M550.653857 627.963105 280.072255 627.963105l0 328.563154c0 32.030507-25.952068 57.981553-57.981553 57.981553-32.029484 0-57.981553-25.951045-57.981553-57.981553L164.10915 67.473741c0-25.160029 16.251126-49.959855 38.654368-57.981553l115.963105 0 38.654368 0 193.271842 0c170.792874 0 309.234947 138.443096 309.234947 309.23597C859.889827 489.520009 721.447754 627.963105 550.653857 627.963105zM589.308225 125.455293 280.072255 125.455293l0 386.54573 309.234947 0c85.386716 0 154.618497-107.886149 154.618497-193.272865S674.694941 125.455293 589.308225 125.455293z" p-id="2427"></path></svg>