<?xml version="1.0" standalone="no"?><!DOCTYPE svg PUBLIC "-//W3C//DTD SVG 1.1//EN" "http://www.w3.org/Graphics/SVG/1.1/DTD/svg11.dtd"><svg t="1634637626287" class="icon" viewBox="0 0 1024 1024" version="1.1" xmlns="http://www.w3.org/2000/svg" p-id="4440" xmlns:xlink="http://www.w3.org/1999/xlink" width="200" height="200"><defs><style type="text/css"></style></defs><path d="M212.8 548v264.8h356.8V608l49.6 45.6c3.2 2.4 6.4 4 11.2 4h155.2c16.8 0 32-12 32.8-28.8 1.6-19.2-12.8-35.2-32-35.2H648.8c-0.8 0-93.6-87.2-100.8-93.6-12-10.4-26.4-16-42.4-16H276.8c-35.2 0-64 28.8-64 64zM898.4 480h-112c-17.6 0-32 14.4-32 32s14.4 32 32 32h112c17.6 0 32-14.4 32-32s-14.4-32-32-32z" p-id="4441"></path><path d="M391.2 329.6m-119.2 0a119.2 119.2 0 1 0 238.4 0 119.2 119.2 0 1 0-238.4 0Z" p-id="4442"></path><path d="M798.4 864h-576c-35.2 0-64-28.8-64-64V224c0-35.2 28.8-64 64-64h336c35.2 0 64 28.8 64 64 0 17.6 14.4 32 32 32s32-14.4 32-32c0-70.4-57.6-128-128-128h-336c-70.4 0-128 57.6-128 128v576c0 70.4 57.6 128 128 128h576c17.6 0 32-14.4 32-32s-14.4-32-32-32z" p-id="4443"></path></svg>