<svg t="1603951405855" class="icon" viewBox="0 0 1024 1024" version="1.1" xmlns="http://www.w3.org/2000/svg" p-id="4890" width="200" height="200"><path d="M60.7 332v139.6c0 5.6 4.6 10.2 10.2 10.2h17.7c5.6 0 10.2 4.6 10.2 10.2v111.6c0 5.6 4.6 10.2 10.2 10.2h40c5 0 9.3-3.7 10.1-8.7l23.5-114.7c0.8-5 5-8.7 10.1-8.7h634.1c5 0 9.3 3.7 10.1 8.7l23.5 114.7c0.8 5 5 8.7 10.1 8.7h40c5.6 0 10.2-4.6 10.2-10.2V492c0-5.6 4.6-10.2 10.2-10.2H953c5.6 0 10.2-4.6 10.2-10.2V332c0-5.6-4.6-10.2-10.2-10.2H70.9c-5.6 0-10.2 4.6-10.2 10.2zM460.8 70H306c-5.2 0-9.5 3.8-10.1 9l-30.1 179.4c-0.7 6.1 4 11.4 10.1 11.4h184.9c5.6 0 10.2-4.6 10.2-10.2V80.2c0-5.6-4.6-10.2-10.2-10.2z" p-id="4891"></path><path d="M157.5 963h303.3c5.6 0 10.2-4.6 10.2-10.2V543c0-5.6-4.6-10.2-10.2-10.2H234.6c-5.2 0-9.5 3.8-10.1 9l-77.1 409.8c-0.7 6 4 11.4 10.1 11.4zM712.5 70H556.2c-5.6 0-10.2 4.6-10.2 10.2v179.4c0 5.6 4.6 10.2 10.2 10.2h185.5c6.1 0 10.9-5.4 10.1-11.4L722.6 79c-0.6-5.2-5-9-10.1-9zM546 543v409.8c0 5.6 4.6 10.2 10.2 10.2H861c6.1 0 10.9-5.4 10.1-11.4l-77.5-409.8c-0.6-5.1-5-9-10.1-9H556.2c-5.6 0-10.2 4.6-10.2 10.2z" p-id="4892"></path></svg>