<svg t="1603959928278" class="icon" viewBox="0 0 1024 1024" version="1.1" xmlns="http://www.w3.org/2000/svg" p-id="32933" width="200" height="200"><path d="M213.723429 910.701714a33.28 33.28 0 0 1-21.723429-7.68 495.981714 495.981714 0 1 1 640 0 32.621714 32.621714 0 0 1-45.421714-3.803428 31.378286 31.378286 0 0 1 3.803428-44.836572 431.981714 431.981714 0 1 0-558.665143 0 32.036571 32.036571 0 0 1-20.48 56.32h2.486858z" p-id="32934"></path><path d="M327.021714 796.818286a31.378286 31.378286 0 0 1-20.48-7.68 330.24 330.24 0 1 1 426.934857 0 31.378286 31.378286 0 0 1-44.836571-3.218286 32.621714 32.621714 0 0 1 3.218286-45.421714 266.898286 266.898286 0 1 0-344.356572 0 32.621714 32.621714 0 0 1 3.876572 45.421714 30.72 30.72 0 0 1-24.356572 10.898286z" p-id="32935"></path><path d="M519.021714 697.563429a160.621714 160.621714 0 1 1 160.694857-160.621715 161.28 161.28 0 0 1-160.694857 160.621715z m0-256a96.621714 96.621714 0 1 0 96.694857 95.378285A97.28 97.28 0 0 0 519.021714 440.32v1.316571z" p-id="32936"></path><path d="M519.021714 1015.661714a31.963429 31.963429 0 0 1-31.963428-31.963428V663.698286a31.963429 31.963429 0 1 1 64 0v320a31.963429 31.963429 0 0 1-32.036572 31.963428z" p-id="32937"></path></svg>