<svg t="1603960024874" class="icon" viewBox="0 0 1024 1024" version="1.1" xmlns="http://www.w3.org/2000/svg" p-id="35584" width="200" height="200"><path d="M846.848 788.48c-5.12 0-11.264-1.024-16.384-3.072-20.48-9.216-29.696-33.792-20.48-54.272 56.32-125.952 26.624-274.432-73.728-368.64-130.048-123.904-336.896-118.784-460.8 11.264-91.136 96.256-114.688 235.52-61.44 356.352 9.216 20.48 0 45.056-20.48 54.272-20.48 9.216-45.056 0-54.272-20.48C72.704 613.376 102.4 438.272 216.064 317.44c154.624-162.816 412.672-169.984 576.512-15.36 124.928 118.784 161.792 304.128 92.16 461.824-7.168 15.36-22.528 24.576-37.888 24.576z" p-id="35585"></path><path d="M846.848 788.48c-5.12 0-11.264-1.024-16.384-4.096-1.024-1.024-149.504-65.536-318.464-65.536s-316.416 65.536-318.464 65.536c-20.48 9.216-45.056 0-54.272-20.48-9.216-20.48 0-45.056 20.48-54.272 6.144-3.072 164.864-72.704 351.232-72.704 187.392 0 345.088 69.632 351.232 72.704 20.48 9.216 29.696 33.792 20.48 54.272-5.12 15.36-20.48 24.576-35.84 24.576z" p-id="35586"></path><path d="M512 854.016c-96.256 0-175.104-79.872-175.104-177.152h81.92c0 52.224 40.96 94.208 92.16 94.208 24.576 0 48.128-9.216 65.536-27.648 17.408-17.408 27.648-41.984 27.648-66.56h81.92c0 47.104-18.432 91.136-51.2 123.904-32.768 34.816-75.776 53.248-122.88 53.248zM510.976 886.784c22.528 0 40.96 18.432 40.96 40.96v31.744c0 22.528-18.432 40.96-40.96 40.96s-40.96-18.432-40.96-40.96v-31.744c0-22.528 18.432-40.96 40.96-40.96zM616.448 859.136c19.456-11.264 45.056-4.096 56.32 15.36l15.36 27.648c11.264 19.456 4.096 45.056-15.36 56.32-19.456 11.264-45.056 4.096-56.32-15.36l-15.36-27.648c-11.264-19.456-5.12-45.056 15.36-56.32zM406.528 859.136c19.456 11.264 26.624 36.864 15.36 56.32L406.528 942.08c-11.264 19.456-36.864 26.624-56.32 15.36s-26.624-36.864-15.36-56.32l15.36-27.648c12.288-19.456 36.864-25.6 56.32-14.336zM512 266.24c-22.528 0-40.96-18.432-40.96-40.96V64.512c0-22.528 18.432-40.96 40.96-40.96s40.96 18.432 40.96 40.96V225.28c0 22.528-18.432 40.96-40.96 40.96z" p-id="35587"></path></svg>