<svg t="1603951647874" class="icon" viewBox="0 0 1024 1024" version="1.1" xmlns="http://www.w3.org/2000/svg" p-id="18463" width="200" height="200"><path d="M68.193 514.66l143.08 13.515v171.21l227.332-56.152v-62.137h-27.617v-78.418l-130.542-20.913-74.315-70.331 23.679-147.906 442.187 70.826c3.097-11.14 6.975-21.379 11.442-30.399L188.752 224.74l80.419-141.682 54.123-20.673 462.513 74.073 43.734 7.006 49.718 7.953 76.704 12.297-2.766 70.511-85.544 93.994-38.608-5.413 18.702-116.741 72.3 11.576 1.007-25.302L816.1 175.531l-6.013 2.3-73.773 88.175c23.123 9.366 34.985 54.906 26.717 106.594-8.871 55.416-37.572 96.91-64.076 92.655-12.599-2.014-22.446-14.011-28.341-32.008l-7.036 43.9 73.142 77.697-191.581-30.685v56.934h-26.055v111.796l-307.812 76.042v164.685L68.192 957.28V514.66h0.001z m653.794-193.22c-11.472-1.834-23.89 16.132-27.739 40.143-3.849 23.993 2.345 44.952 13.817 46.786 11.486 1.835 23.904-16.131 27.753-40.141 3.833-23.995-2.345-44.953-13.831-46.788z m-3.594 213.937l25.453 23.243 85.98-53.342 25.499-159.166-33.392-5.338-23.062 144.042-80.478 50.561z" p-id="18464"></path></svg>