<svg t="1603952005880" class="icon" viewBox="0 0 1024 1024" version="1.1" xmlns="http://www.w3.org/2000/svg" p-id="23757" width="200" height="200"><path d="M139.517847 884.645114l331.602237 0-97.916246 139.354886 46.979312 0L518.099395 884.645114l18.577547 0 97.869686 139.354886 46.979312 0L583.702814 884.645114l300.779339 0c0 0 23.280135 4.143864 23.280135-21.184922C907.762288 838.084845 884.482153 838.084845 884.482153 838.084845l-744.964306 0c0 0-23.280135 0-23.280135 25.328786C116.237712 888.788978 139.517847 884.645114 139.517847 884.645114z" p-id="23758"></path><path d="M488.719865 0 488.719865 46.560269 442.159596 46.560269 442.159596 93.120538 581.840404 93.120538 581.840404 46.560269 535.280135 46.560269 537.701269 0Z" p-id="23759"></path><path d="M116.237712 232.801346l0 465.602691c0 93.120538 93.120538 93.120538 93.120538 93.120538l605.283499 0c0 0 93.120538 0 93.120538-93.120538L907.762288 232.801346c0-93.120538-93.120538-93.120538-93.120538-93.120538L209.358251 139.680807C209.358251 139.680807 116.237712 139.680807 116.237712 232.801346zM349.039058 698.404037c-77.150366 0-139.680807-62.530441-139.680807-139.680807 0-77.150366 62.530441-139.680807 139.680807-139.680807l0 139.680807 139.680807 0C488.719865 635.873596 426.189424 698.404037 349.039058 698.404037zM814.641749 651.843768l-232.801346 0 0-46.560269 232.801346 0L814.641749 651.843768zM814.641749 512.162961l-232.801346 0 0-46.560269 232.801346 0L814.641749 512.162961zM814.641749 325.921884 209.358251 325.921884 209.358251 232.801346l605.283499 0L814.641749 325.921884z" p-id="23760"></path></svg>