<svg t="1603960250078" class="icon" viewBox="0 0 1024 1024" version="1.1" xmlns="http://www.w3.org/2000/svg" p-id="43950" width="200" height="200"><path d="M511.998465 66.240657c-204.053396 0-369.471866 165.417447-369.471866 369.472889 0 47.588855 8.999978 93.073792 25.38618 134.852314 0 0 0.001023 0.004093 0.002047 0.004093 5.528923 14.097066 11.899004 27.773554 19.047822 40.962947 40.071647 79.612199 144.580886 256.800737 325.035818 364.178303 180.420139-107.355053 284.923238-284.496519 325.011258-364.130208 28.356838-52.29504 44.461631-112.200408 44.461631-175.86745C881.471354 231.658104 716.053907 66.240657 511.998465 66.240657zM512.000512 753.689574c-173.35421 0-313.88485-140.53064-313.88485-313.883827s140.53064-313.882803 313.88485-313.882803c173.352163 0 313.882803 140.529617 313.882803 313.882803S685.352675 753.689574 512.000512 753.689574z" p-id="43951"></path><path d="M734.375182 430.477288l35.905768-40.903595-46.788629-27.816532 21.506826-49.995671-53.097312-11.992125 5.004991-54.197366-54.199413 4.998851-11.993149-53.092195-49.999764 21.508873-27.806299-46.790676-40.909735 35.907815-40.910759-35.907815-27.802206 46.790676-50.001811-21.508873-11.995195 53.092195-54.198389-4.998851 5.003967 54.197366-53.095265 11.992125 21.50785 49.995671-46.791699 27.816532 35.906791 40.903595-35.906791 40.905642 46.791699 27.814486-21.50785 49.997718 53.095265 11.990079-5.003967 54.201459 54.198389-5.000897 11.995195 53.094242 50.001811-21.511943 27.802206 46.790676 40.910759-35.904745 40.909735 35.904745 27.806299-46.790676 49.999764 21.511943 11.993149-53.094242 54.199413 5.000897-5.004991-54.201459 53.097312-11.990079-21.506826-49.997718 46.788629-27.814486L734.375182 430.477288zM542.958594 590.54796c-8.135284 7.830339-18.23327 11.899004-30.280654 12.201903-12.653181-0.302899-22.300912-4.068665-28.924773-11.299347-9.038864-9.342786-13.410428-20.040429-13.107529-32.086789 0-14.160511 4.216022-25.007557 12.654204-32.541137 8.432043-6.927783 18.22713-10.394744 29.377074-10.394744 12.655228 0.303922 23.198352 4.674463 31.635511 13.108552 6.928806 7.835456 10.544147 17.779945 10.847046 29.827329C555.160497 571.715033 551.092855 582.107731 542.958594 590.54796zM548.833395 333.840344c-7.837502 28.924773-15.069207 77.889975-21.693068 146.883325l-28.022217 0c-8.133238-68.993351-15.971763-118.106932-23.500227-147.335626-7.230682-26.50977-10.847046-43.386136-10.847046-50.617841 0.297782-12.047384 4.217045-22.597671 11.751648-31.636534 8.43102-9.335622 20.936845-14.158465 37.511335-14.462387 13.854543 0.303922 25.00551 5.126764 33.443693 14.462387 7.830339 8.439206 11.750625 18.981307 11.750625 31.636534C558.924217 289.401226 555.458279 306.425971 548.833395 333.840344z" p-id="43952"></path></svg>