<svg t="1603951311908" class="icon" viewBox="0 0 1024 1024" version="1.1" xmlns="http://www.w3.org/2000/svg" p-id="3676" width="200" height="200"><path d="M766.6 321.9c8.6 3.8 18.2 5.7 27.8 6.7 49.8 4.8 94.8-31.6 99.6-82.4 4.8-49.8-31.6-94.8-82.4-99.6h-15.3c-31.6 3.8-59.4 23-74.7 49.8-21.1 48-1 103.5 45 125.5z m-124.5 115c15.3-16.3 23.9-37.3 24.9-59.4 0-6.7 0-13.4-1-19.2-6.7-47.9-51.7-81.4-99.6-74.7h-1c-49.8 2.9-87.2 45-84.3 94.8 1 78.6 105.4 117.8 161 58.5zM847 521.1c1.9-10.5 2.9-20.1 1-30.6-6.7-49.8-51.7-85.2-101.5-78.5-8.6 1-17.2 1.9-24.9 4.8-42.1 19.2-63.2 66.1-49.8 109.2 20.1 90 159.9 85.2 175.2-4.9z m0 0" p-id="3677"></path><path d="M978.2 624.6c-24.9-27.8-50.8-15.3-110.1 4.8-64.2 23-183.9 75.7-217.4 84.3-33.5 8.6-132.2-62.2-150.4-70.9-27.8-14.4-30.6-52.7 88.1 27.8 97.7 65.1 103.4-19.2 100.6-37.3-2.9-19.2-24.9-33.5-24.9-33.5s-183.9-105.3-199.2-113c-15.3-8.6-59.4-33.5-117.8-13.4-57.5 20.1-158 86.2-158 86.2v249s219.3 0 367.8 53.6c147.5 53.6 279.6-69 355.3-114 83.3-48.9 90.9-96.8 66-123.6z m-820.7-67.1H39.7c-3.8 0-6.7 2.9-6.7 6.7v236.6c0 4.8 2.9 7.7 6.7 7.7h117.8c3.8 0 6.7-2.9 6.7-6.7V565.2c0-3.8-2.9-7.7-6.7-7.7z m0 0" p-id="3678"></path></svg>