<?xml version='1.0' encoding='utf-8'?>
<!DOCTYPE svg PUBLIC '-//W3C//DTD SVG 1.1//EN' 'http://www.w3.org/Graphics/SVG/1.1/DTD/svg11.dtd'>
<svg version="1.1" xmlns="http://www.w3.org/2000/svg" viewBox="0 0 512 512" xmlns:xlink="http://www.w3.org/1999/xlink" enable-background="new 0 0 512 512">
  <g>
    <path d="m480.6,11c-11.3,0-20.4,9.1-20.4,20.4v274.7h-116.6v-63l69.5-68.8c3.9-3.8 11.6-16.4 0-29l-94.5-93.5c-15.2-15.1-35.5-23.4-57-23.4-21.5,0-41.8,8.3-57,23.4l-124.2,123c-11.5,12.8-3.9,25.2 0,29l23.4,23.1-79.7,30.7c-8.6,2.9-20.2,18.5-7,33.6l112.1,110.9c12.9,11.6 29.1,4.9 33.3-7l31.2-79.2 23.8,23.5c12.8,10.7 24.8,3.9 28.7,0l56.5-56v43c0,11.3 9.1,20.4 20.4,20.4h137v133.6c0,11.3 9.1,20.4 20.4,20.4s20.4-9.1 20.4-20.4v-449c0.1-11.3-9-20.4-20.3-20.4zm-318.5,273.7l-26.3,66.6-67.7-67 67.4-26 26.6,26.4zm69.8,11.6l-108.1-107 109.5-108.4c15.1-14.9 41.5-15 56.6,0l79.8,79-137.8,136.4z"/>
  </g>
</svg>
