<?xml version="1.0" encoding="utf-8"?>
<!-- Generator: Adobe Illustrator 21.1.0, SVG Export Plug-In . SVG Version: 6.00 Build 0)  -->
<svg version="1.1" id="图层_1" xmlns="http://www.w3.org/2000/svg" xmlns:xlink="http://www.w3.org/1999/xlink" x="0px" y="0px"
	 viewBox="0 0 128 128" style="enable-background:new 0 0 128 128;" xml:space="preserve">
<style type="text/css">
	.st0{fill:#191919;}
	.st1{fill:#F25555;}
	.st2{fill:#FFFFFF;}
</style>
<g>
	<g>
		<path class="st0" d="M64,104.6c10.7,0,19.3,3.5,19.3,7.7c0,4.3-8.6,7.7-19.3,7.7s-19.3-3.5-19.3-7.7C44.7,108,53.3,104.6,64,104.6
			L64,104.6z"/>
		<path class="st1" d="M64,8C40.5,8,21.5,27,21.5,50.5c0,27.9,27.6,41.3,31.1,44.4c3.5,3.2,6.5,10.3,7.6,14.3c0.6,2,2.2,3,3.8,3
			c1.6,0,3.2-1,3.8-3c1.2-4,4.1-11.2,7.6-14.3s31.1-16.5,31.1-44.4C106.5,27,87.4,8,64,8L64,8z"/>
		<path class="st2" d="M64,15.7c19.2,0,34.8,15.6,34.8,34.8S83.2,85.3,64,85.3S29.2,69.7,29.2,50.5S44.8,15.7,64,15.7L64,15.7z"/>
	</g>
	<path class="st1" d="M47.7,44.4h4.6c1.3,0,2.3,1,2.3,2.3v13.8c0,1.3-1,2.3-2.3,2.3c0,0,0,0,0,0h-4.6c-1.3,0-2.3-1-2.3-2.3
		c0,0,0,0,0,0V46.7C45.4,45.5,46.5,44.4,47.7,44.4z M61.5,26h4.6c1.3,0,2.3,1,2.3,2.3v32.2c0,1.3-1,2.3-2.3,2.3c0,0,0,0,0,0h-4.6
		c-1.3,0-2.3-1-2.3-2.3c0,0,0,0,0,0V28.3C59.2,27,60.3,26,61.5,26C61.5,26,61.5,26,61.5,26z M75.4,32.5H80c1.3,0,2.3,1,2.3,2.3l0,0
		v25.7c0,1.3-1,2.3-2.3,2.3c0,0,0,0,0,0h-4.6c-1.3,0-2.3-1-2.3-2.3c0,0,0,0,0,0V34.8C73,33.5,74.1,32.5,75.4,32.5L75.4,32.5
		L75.4,32.5z M45.5,66.4h-2.3c-1.3,0-2.3,1-2.3,2.3c0,0,0,0,0,0H41c0,1.3,1,2.3,2.3,2.3h41.5c1.3,0,2.3-1,2.3-2.3
		c0-1.3-1-2.3-2.3-2.3c0,0,0,0,0,0H45.5z"/>
</g>
</svg>
