<?xml version="1.0" encoding="utf-8"?>
<!-- Generator: Adobe Illustrator 22.0.0, SVG Export Plug-In . SVG Version: 6.00 Build 0)  -->
<svg version="1.1" id="图层_1" xmlns="http://www.w3.org/2000/svg" xmlns:xlink="http://www.w3.org/1999/xlink" x="0px" y="0px"
	 viewBox="0 0 128 128" style="enable-background:new 0 0 128 128;" xml:space="preserve">
<style type="text/css">
	.st0{fill:#F44249;}
	.st1{fill:#FFFFFF;}
	.st2{fill:none;}
</style>
<path class="st0" d="M64,8C38.8,8,18.4,28.4,18.4,53.6c0,30,29.7,44.4,33.4,47.7c3.8,3.4,6.9,11.1,8.2,15.4c0.6,2.1,2.3,3.2,4,3.2
	c1.7-0.1,3.4-1.1,4-3.2c1.3-4.3,4.4-12,8.2-15.4c3.7-3.3,33.4-17.7,33.4-47.7C109.6,28.4,89.2,8,64,8L64,8z M64,8"/>
<path class="st1" d="M64,16.3c20.6,0,37.3,16.7,37.3,37.3C101.3,74.3,84.6,91,64,91c-20.6,0-37.3-16.7-37.3-37.3S43.4,16.3,64,16.3
	L64,16.3z M64,16.3"/>
<path class="st0" d="M49.8,71.3c0,2.5-2,4.5-4.5,4.5c-2.5,0-4.5-2-4.5-4.5c0-2.5,2-4.5,4.5-4.5C47.8,66.7,49.8,68.8,49.8,71.3
	L49.8,71.3z M77.7,66.6c-2.5,0-4.5,2-4.5,4.5c0,2.5,2,4.5,4.5,4.5c2.5,0,4.5-2,4.5-4.5C82.2,68.7,80.2,66.6,77.7,66.6L77.7,66.6z
	 M74.5,33.1c0-0.9-0.8-1.7-1.7-1.7h-2.4c-0.9,0-1.7,0.7-1.7,1.7v1.6h5.8L74.5,33.1L74.5,33.1z M91.3,56.1v12.5h-7.1
	c-1-2.7-3.6-4.6-6.6-4.6c-3,0-5.6,1.9-6.6,4.6h-19c-1-2.7-3.6-4.6-6.6-4.6c-3,0-5.6,1.9-6.6,4.6h-1.6v-7.9H61L44.8,45.1l1-1
	l-3.6-3.5v10.3l0,0v0c-1.2,0-2.1,1-2.1,2.2c0,1.2,1,2.2,2.2,2.2c1.2,0,2.2-1,2.2-2.2h3.3c0,3-2.4,5.4-5.4,5.4c-3,0-5.4-2.4-5.4-5.4
	c0-1.9,1-3.6,2.5-4.5v-9.5l2.5-2.5l6,5.5l1-1.1l15.9,15.6V37.4c0-0.5,0.7-1,1.4-1h9.2c2.5,0,4.1,1,4.9,5.2l3,9.8h3.4
	C89.2,51.3,91.3,53.5,91.3,56.1L91.3,56.1z M77.9,47.9l-1.7-6.2c-0.1-0.6-1.2-1.4-1.7-1.4h-4.6c-0.5,0-1.3,1.3-1.3,1.9v6.3
	c0,1.1,1,1.9,1.8,1.9h5.9C77.1,50.4,78.3,49,77.9,47.9L77.9,47.9z M77.9,47.9"/>
<rect x="36.7" y="31.4" class="st2" width="54.5" height="44.5"/>
</svg>
