<?xml version="1.0" encoding="utf-8"?>
<!-- Generator: Adobe Illustrator 22.0.0, SVG Export Plug-In . SVG Version: 6.00 Build 0)  -->
<svg version="1.1" id="图层_1" xmlns="http://www.w3.org/2000/svg" xmlns:xlink="http://www.w3.org/1999/xlink" x="0px" y="0px"
	 viewBox="0 0 128 128" style="enable-background:new 0 0 128 128;" xml:space="preserve">
<style type="text/css">
	.st0{fill:#191919;}
	.st1{fill:#F25555;}
	.st2{fill:#FFFFFF;}
</style>
<g>
	<g>
		<path class="st0" d="M64.5,104.6c10.7,0,19.3,3.5,19.3,7.7c0,4.3-8.6,7.7-19.3,7.7c-10.7,0-19.3-3.5-19.3-7.7
			C45.2,108,53.8,104.6,64.5,104.6L64.5,104.6z M64.5,104.6"/>
		<path class="st1" d="M64.5,8C41,8,22,27,22,50.5c0,27.9,27.6,41.3,31.1,44.4c3.5,3.2,6.5,10.3,7.6,14.3c0.6,2,2.2,3,3.8,3
			c1.6,0,3.2-1,3.8-3c1.2-4,4.1-11.2,7.6-14.3c3.5-3.1,31.1-16.5,31.1-44.4C107,27,87.9,8,64.5,8L64.5,8z M64.5,8"/>
		<path class="st2" d="M64.5,15.7c19.2,0,34.8,15.6,34.8,34.8c0,19.2-15.6,34.8-34.8,34.8c-19.2,0-34.8-15.6-34.8-34.8
			S45.3,15.7,64.5,15.7L64.5,15.7z M64.5,15.7"/>
	</g>
	<path class="st1" d="M81.2,47.3c0-6.3-5.1-11.4-11.4-11.4c-4.4,0-8.4,2.5-10.2,6.4c-1.3-0.4-2.7-0.5-4.1-0.5
		c-8.6,0-15.6,7-15.6,15.6C40,66,47,73,55.6,73h15.6c3,0,5.9-1.2,8-3.3c2.2-2.2,3.3-5,3.3-8c0-3.1-1.2-5.9-3.2-7.9
		C80.5,51.8,81.2,49.6,81.2,47.3L81.2,47.3z M69.9,39.3c4.4,0,8,3.6,8,8c0,1.6-0.5,3.1-1.3,4.3c-1.7-0.9-3.5-1.4-5.4-1.4h-1.7
		c-1.5-2.8-3.8-5.2-6.6-6.6C64.1,41,66.8,39.3,69.9,39.3L69.9,39.3z M86.7,45.7h-2.5c-0.9,0-1.7,0.8-1.7,1.7c0,0.9,0.8,1.7,1.7,1.7
		h2.5c0.9,0,1.7-0.8,1.7-1.7C88.4,46.4,87.6,45.7,86.7,45.7L86.7,45.7z M69.9,34.7c0.9,0,1.7-0.8,1.7-1.7v-2.5
		c0-0.9-0.8-1.7-1.7-1.7c-0.9,0-1.7,0.8-1.7,1.7V33C68.2,34,68.9,34.7,69.9,34.7L69.9,34.7z M69.9,34.7"/>
	<path class="st1" d="M57.7,37.5l0.9,0.9l0.3,0.3c0.3,0.3,0.8,0.5,1.2,0.5c0.4,0,0.9-0.2,1.2-0.5c0.7-0.7,0.7-1.7,0-2.4L60.9,36
		l-0.9-0.9l-0.9-0.9c-0.7-0.7-1.7-0.7-2.4,0c-0.7,0.7-0.7,1.7,0,2.4L57.7,37.5z M80,38.9c0.4,0,0.9-0.2,1.2-0.5l1.8-1.8
		c0.7-0.7,0.7-1.7,0-2.4c-0.7-0.7-1.7-0.7-2.4,0L78.8,36c-0.7,0.7-0.7,1.7,0,2.4C79.1,38.7,79.6,38.9,80,38.9L80,38.9z M80,38.9"/>
</g>
</svg>
