<?xml version="1.0" encoding="utf-8"?>
<!-- Generator: Adobe Illustrator 22.0.0, SVG Export Plug-In . SVG Version: 6.00 Build 0)  -->
<svg version="1.1" id="图层_1" xmlns="http://www.w3.org/2000/svg" xmlns:xlink="http://www.w3.org/1999/xlink" x="0px" y="0px"
	 viewBox="0 0 128 128" style="enable-background:new 0 0 128 128;" xml:space="preserve">
<style type="text/css">
	.st0{fill:#F44249;}
	.st1{fill:#FFFFFF;}
	.st2{fill-rule:evenodd;clip-rule:evenodd;fill:#F44249;}
</style>
<g>
	<path class="st0" d="M64,8C38.8,8,18.4,28.4,18.4,53.6c0,30,29.7,44.4,33.4,47.7c3.8,3.4,6.9,11.1,8.2,15.4c0.6,2.1,2.3,3.2,4,3.2
		c1.7-0.1,3.4-1.1,4-3.2c1.3-4.3,4.4-12,8.2-15.4c3.7-3.3,33.4-17.7,33.4-47.7C109.6,28.4,89.2,8,64,8L64,8z M64,8"/>
	<path class="st1" d="M64,16.3c20.6,0,37.3,16.7,37.3,37.3C101.3,74.3,84.6,91,64,91c-20.6,0-37.3-16.7-37.3-37.3S43.4,16.3,64,16.3
		L64,16.3z M64,16.3"/>
	<g>
		<g>
			<path class="st2" d="M52,37.6h19c1.1,0,2-0.9,2-2v-3c0-1.1-0.9-2-2-2H52c-1.1,0-2,0.9-2,2v3C50,36.7,50.9,37.6,52,37.6z M53,32.6
				h7v3h-7V32.6z M91,53.6v-1.4c0-1.2-0.8-2.6-2-2.6H78v-2l-7-8H51l-6,8v2h-6c-1.2,0-2,1.4-2,2.6l0,1.4h2v4h-2l0,7.7
				c0,1.2,1,2.3,2.3,2.3H42c0.3-4.5,3.9-8,8.5-8s8.2,3.5,8.5,8H69c0.3-4.5,3.9-8,8.5-8s8.2,3.5,8.5,8h2.8c1.2,0,2.3-1,2.3-2.3v-7.7
				h-7v-4H91z M48,49.6v-2l4-5h5v7H48z M59,57.6h-4L55,53.5l4.1,0.1V57.6z M64,57.6h-4v-4h4V57.6z M75,49.6H61v-7h9l5,5V49.6z
				 M77.5,61.6c-3.6,0-6.5,2.9-6.5,6.5s2.9,6.5,6.5,6.5c3.6,0,6.5-2.9,6.5-6.5S81.1,61.6,77.5,61.6z M77.5,71.6
				c-1.9,0-3.5-1.6-3.5-3.5s1.6-3.5,3.5-3.5s3.5,1.6,3.5,3.5S79.4,71.6,77.5,71.6z M50.5,61.6c-3.6,0-6.5,2.9-6.5,6.5
				s2.9,6.5,6.5,6.5s6.5-2.9,6.5-6.5S54.1,61.6,50.5,61.6z M50.5,71.6c-1.9,0-3.5-1.6-3.5-3.5s1.6-3.5,3.5-3.5s3.5,1.6,3.5,3.5
				S52.4,71.6,50.5,71.6z"/>
		</g>
	</g>
</g>
</svg>
