<svg t="1611721575741" class="icon" viewBox="0 0 1024 1024" version="1.1" xmlns="http://www.w3.org/2000/svg" p-id="3343" width="250" height="250"><path d="M258.816 795.34h-3.656a38.185 38.185 0 0 0-38.08 38.08v30.25h-26.207a38.197 38.197 0 0 0-38.08 38.068v31.012H870.89v-31.012a38.197 38.197 0 0 0-38.08-38.08h-25.246V833.42a38.185 38.185 0 0 0-38.079-38.08h-3.715c0-91.817-28.844-178.466-101.346-237.994-6.376-5.743-21.52-19.42-29.208-26.957-5.86-6.622-10.548-13.244-10.864-17.932-0.774-11.24 13.126-25.41 24.202-34.833a2.801 2.801 0 0 0 0.457-0.504c83.824-59.516 116.723-151.615 116.77-249.644h3.763a38.185 38.185 0 0 0 38.08-38.08v-30.191h25.186a38.185 38.185 0 0 0 38.08-38.068V90.125H152.794v31a38.197 38.197 0 0 0 38.08 38.08h26.206v30.25a38.197 38.197 0 0 0 38.08 38.08h3.668c0 97.783 33.509 189.366 116.84 248.917a2.625 2.625 0 0 0 0.833 1.172c11.075 9.376 24.976 23.593 24.202 34.833-0.328 4.688-4.97 11.31-10.864 17.932-9.904 9.646-32.15 29.56-32.15 29.56l0.188 0.14c-70.322 59.434-99.025 144.664-99.049 235.216z m120.181-177.142s7.138-8.556 23.124-21.436a217.66 217.66 0 0 1 23.851-21.097c13.15-12.963 27.602-29.91 30.473-44.162h0.82c2.251-12.201 6.072-52.39-32.172-84.844-16.49-13.994-21.096-18.354-20.182-18.225-0.938-0.914-1.875-1.817-2.801-2.755-15.987-12.892-23.125-21.448-23.125-21.448-56-46.987-62.012-150.958-62.633-176.72h71.166c-1.887 65.74 37.751 114.204 44.842 123.521s19.714 18.882 48.382 52.027 17.018 245.87 10.77 274.093-45.24 74.67-59.129 91.243-12.575 28.633-12.575 28.633h182.767s1.348-12.096-12.54-28.668-52.813-62.985-59.13-91.208-17.92-240.924 10.748-274.07 41.208-42.615 48.381-52.026 46.741-57.782 44.854-123.521h72.28c-0.621 25.785-6.634 129.733-62.634 176.72 0 0-7.138 8.555-23.124 21.448-0.926 0.937-1.864 1.84-2.801 2.754 0.879-0.129-3.692 4.231-20.183 18.225-38.244 32.442-34.411 72.667-32.16 84.844h0.808c2.883 14.252 17.334 31.2 30.473 44.163a217.67 217.67 0 0 1 23.851 21.096c15.987 12.893 23.124 21.437 23.124 21.437 55.824 46.881 61.978 150.29 62.634 176.474H316.352c0.656-26.172 6.81-129.628 62.622-176.474z" fill="" p-id="3344"></path><path d="M354.384 227.418h297.698v57.816H354.384z" fill="#FFFFFF" p-id="3345"></path><path d="M342.957 227.331c0 87.118 82.875 161.355 143.657 194.722v418.113h50.397V422.053c89.825-47.432 131.644-106.432 139.778-194.722z" fill="" p-id="3346"></path></svg>