<svg t="1611721556712" class="icon" viewBox="0 0 1024 1024" version="1.1" xmlns="http://www.w3.org/2000/svg" p-id="2563" width="250" height="250"><path d="M1022.661836 436.135195c0 7.359581 2.687847 15.487119 0 20.606828a41.597634 41.597634 0 0 1-20.478835 40.95767l-187.637328 107.833867a39.165772 39.165772 0 0 1-41.085664 0l-17.982977-10.175421a40.957671 40.957671 0 0 1 0-71.931909l202.996455-118.009288a42.429587 42.429587 0 0 1 64.188349 30.718253z m-84.795177 190.197182a43.901503 43.901503 0 0 1 61.692491 51.197089c-5.119709 12.927265-12.799272 28.158398-17.918981 41.149659 0 2.495858-2.559854 2.495858-2.559854 5.055713l-2.559855-2.559855-38.589805-23.03869a40.957671 40.957671 0 0 1 0-71.931908l-0.063996 0.127992z m-351.979981-128.376698a43.901503 43.901503 0 0 1-20.478836-35.901958v-12.799272a40.829678 40.829678 0 0 1 20.478836-35.837962l311.02231-179.70178a42.55758 42.55758 0 0 1 56.508786 15.359127c2.559854 5.119709 7.295585 12.863268 10.239418 17.982977a39.165772 39.165772 0 0 1-15.359126 56.508786L634.651904 503.011391a39.549751 39.549751 0 0 1-41.085663 0l-7.74356-5.183705 0.127993 0.063996z m43.965499-202.676473a41.85362 41.85362 0 0 1-64.252345-35.837962v-20.606828a40.701685 40.701685 0 0 1 20.542831-35.837961l185.013477-107.833867a43.005554 43.005554 0 0 1 46.269369 2.559854c6.527629 3.391807 12.607283 7.679563 17.918981 12.799272a42.045609 42.045609 0 0 1-5.119709 69.308058l-200.308607 115.577427-0.127993-0.127993z m0-207.796182A43.901503 43.901503 0 0 1 565.599832 51.581066v-51.197088h7.295585l46.333364 7.295585a42.55758 42.55758 0 0 1 10.239418 79.547476l0.319982 0.255985zM100.474286 813.585727l413.672472-238.514434 413.672472 238.514434a511.970882 511.970882 0 0 1-827.408941 0h0.063997zM462.757681 0.191989v485.09241L46.461358 723.798834a526.562052 526.562052 0 0 1-46.269369-212.979887A512.930827 512.930827 0 0 1 462.757681 0.191989z" p-id="2564"></path></svg>