<svg t="1611724394194" class="icon" viewBox="0 0 1024 1024" version="1.1" xmlns="http://www.w3.org/2000/svg" p-id="8426" width="250" height="250"><path d="M384.853 996.557l-247.33-308.975s-12.493-115.303 98.919-66.765a176.401 176.401 0 0 1 87.176 89.43l2.253-470.631s66.492-99.191 124.245 0l0.956 297.984s71.885-97.758 156.467 6.827c0 0 63.352-106.496 152.508 5.188 0 0 63.147-123.221 126.635 10.718v373.965s-3.619 29.218-55.16 62.122H384.853v0.137z" p-id="8427"></path><path d="M387.038 0.683a249.856 249.856 0 0 0-249.856 249.856c0 92.501 50.859 172.441 125.679 215.586v-77.142a185.754 185.754 0 0 1-63.488-139.537 186.778 186.778 0 0 1 373.418 0c0 54.614-23.756 103.288-61.166 137.49v79.12c74.547-43.28 125.269-123.016 125.269-215.517A249.993 249.993 0 0 0 386.97 0.614z" p-id="8428"></path></svg>