<svg t="1611563191781" class="icon" viewBox="0 0 1024 1024" version="1.1" xmlns="http://www.w3.org/2000/svg" p-id="3760" width="250" height="250"><path d="M930.56 589.12a224 224 0 1 1-316.8 316.8 224 224 0 0 1 316.8-316.8zM704 64l54.784 383.936-42.88 0.064c-63.36 0-121.408 23.04-166.144 61.184l0.064-65.152a43.52 43.52 0 0 0-86.912 0v84.928a43.52 43.52 0 0 0 34.048 42.432A253.504 253.504 0 0 0 459.84 704v64a255.36 255.36 0 0 0 86.784 192.064L192 960 320 64h384z m-498.752 4.928a43.264 43.264 0 0 1 35.2 50.048v0.192L98.112 915.52a43.648 43.648 0 0 1-50.432 35.328 43.264 43.264 0 0 1-35.2-50.112l0.064-0.128L154.816 104.256a43.648 43.648 0 0 1 50.432-35.328zM638.72 659.2a160 160 0 0 0 221.76 221.76L638.656 659.2z m45.248-45.248l221.76 221.76a160 160 0 0 0-221.76-221.76z m185.28-511.168l72 402.432a255.168 255.168 0 0 0-97.088-49.088l-60.544-338.432a43.264 43.264 0 0 1 35.008-50.176h0.192a43.648 43.648 0 0 1 50.432 35.2z m-362.816 40a43.52 43.52 0 0 0-43.456 43.456v84.928a43.52 43.52 0 1 0 86.912 0V186.24a43.52 43.52 0 0 0-43.456-43.52z" p-id="3761"></path></svg>