<svg t="1611563366250" class="icon" viewBox="0 0 1024 1024" version="1.1" xmlns="http://www.w3.org/2000/svg" p-id="7592" width="250" height="250"><path d="M543.872 480h268.224c52.416 0 94.848 43.008 94.848 96v160h52.8a64 64 0 0 1 64 64V960a64 64 0 0 1-64 64H803.2a64 64 0 0 1-64-64v-160a64 64 0 0 1 64-64h40.512V576c0-17.664-14.144-32-31.616-32h-268.16v192h46.528a64 64 0 0 1 64 64V960a64 64 0 0 1-64 64H433.92a64 64 0 0 1-64-64v-160a64 64 0 0 1 64-64h46.72v-192H211.328a31.808 31.808 0 0 0-31.616 32v160h40.832a64 64 0 0 1 64 64V960a64 64 0 0 1-64 64H64a64 64 0 0 1-64-64v-160a64 64 0 0 1 64-64h52.48V576c0-52.992 42.496-96 94.848-96H480.64v-192h-46.72a64 64 0 0 1-64-64V64a64 64 0 0 1 64-64h156.544a64 64 0 0 1 64 64v160a64 64 0 0 1-64 64h-46.592v192z" p-id="7593"></path></svg>