<svg t="1611563160486" class="icon" viewBox="0 0 1026 1024" version="1.1" xmlns="http://www.w3.org/2000/svg" p-id="3524" width="250" height="250"><path d="M972.8 716.8c-29.257143 21.942857-329.142857 219.428571-373.028571 248.685714-51.2 29.257143-95.085714 73.142857-197.485715 21.942857-36.571429-14.628571-168.228571-87.771429-212.114285-109.714285-43.885714-21.942857-65.828571-21.942857-102.4 0L0 607.085714s36.571429-21.942857 102.4-43.885714c95.085714-36.571429 138.971429-7.314286 197.485714 29.257143 21.942857 14.628571 102.4 73.142857 102.4 73.142857s73.142857 43.885714 153.6 43.885714c117.028571 0 138.971429 7.314286 138.971429 43.885715 0 43.885714-73.142857 43.885714-73.142857 43.885714H424.228571c-65.828571 0-153.6-36.571429-153.6-36.571429s73.142857 80.457143 153.6 80.457143h182.857143c43.885714 0 117.028571-21.942857 117.028572-87.771428 0-87.771429-80.457143-87.771429-175.542857-87.771429h-21.942858c7.314286-7.314286 7.314286-7.314286 14.628572-7.314286 14.628571-14.628571 43.885714-29.257143 65.828571-43.885714 73.142857-43.885714 109.714286-51.2 146.285715 0 21.942857-21.942857 58.514286-29.257143 80.457142-29.257143 29.257143 0 58.514286 21.942857 51.2 51.2 80.457143-43.885714 117.028571-29.257143 131.657143-7.314286 21.942857 21.942857 7.314286 58.514286-43.885714 87.771429zM424.228571 182.857143h124.342858c36.571429 0 65.828571-80.457143 65.828571-80.457143 0-21.942857 0-43.885714-43.885714-43.885714-43.885714-7.314286-58.514286 21.942857-87.771429 21.942857-29.257143 0-43.885714-21.942857-80.457143-29.257143-43.885714 0-51.2 21.942857-51.2 51.2 0 0 29.257143 80.457143 73.142857 80.457143zM468.114286 402.285714h95.085714V438.857143H468.114286z" p-id="3525"></path><path d="M548.571429 204.8H424.228571c-146.285714 0-182.857143 285.257143-182.857142 285.257143 0 36.571429 29.257143 73.142857 65.828571 73.142857H658.285714c36.571429 0 65.828571-36.571429 65.828572-73.142857 7.314286 0-29.257143-285.257143-175.542857-285.257143zM453.485714 307.2h36.571429c0-7.314286 7.314286-21.942857 7.314286-29.257143H512c0 7.314286-7.314286 14.628571-7.314286 21.942857h65.828572V365.714286H468.114286v21.942857h109.714285v73.142857h-14.628571v-7.314286H468.114286v14.628572h-14.628572V307.2z m-58.514285-29.257143c14.628571 14.628571 29.257143 29.257143 36.571428 43.885714l-14.628571 14.628572c-7.314286-14.628571-21.942857-29.257143-29.257143-43.885714l7.314286-14.628572z m197.485714 212.114286H468.114286c-29.257143 0-43.885714-7.314286-58.514286-21.942857-7.314286 0-14.628571 14.628571-29.257143 29.257143l-7.314286-21.942858c7.314286-7.314286 21.942857-14.628571 29.257143-21.942857V373.028571h-21.942857v-14.628571h43.885714v95.085714c7.314286 14.628571 29.257143 21.942857 43.885715 21.942857h131.657143c-7.314286 7.314286-7.314286 14.628571-7.314286 14.628572z" p-id="3526"></path><path d="M468.114286 321.828571h87.771428v29.257143H468.114286z" p-id="3527"></path></svg>