<svg t="1611563106386" class="icon" viewBox="0 0 1260 1024" version="1.1" xmlns="http://www.w3.org/2000/svg" p-id="3146" width="250" height="250"><path d="M300.302966 914.274462c0 57.737846-46.237538 103.975385-103.975384 103.975384-57.659077 0-103.975385-46.237538-103.975385-103.975384a103.975385 103.975385 0 0 1 207.950769 0z m639.369846-105.787077c-57.659077 0-103.975385 46.316308-103.975384 103.975384 0 57.737846 46.316308 103.975385 103.975384 103.975385a103.975385 103.975385 0 0 0 0-207.950769zM865.787274 39.936A39.463385 39.463385 0 0 0 826.166351 0.787692h-55.296a37.809231 37.809231 0 0 0-38.518154 37.809231V74.830769h134.065231V39.936h-0.630154z m385.181538 526.414769v287.271385h-162.816a161.949538 161.949538 0 0 0-152.024615-105.787077c-69.710769 0-129.181538 43.874462-152.024615 105.787077H348.903582a161.949538 161.949538 0 0 0-152.024616-105.787077c-69.710769 0-129.181538 43.874462-152.024615 105.787077H8.226658V672.137846h548.706462l-372.027077-357.612308 23.473231-22.843076-83.495385-80.502154v236.780307l-0.630154-0.630153v0.630153a49.860923 49.860923 0 1 0 51.042462 49.860923h74.515692c0 68.529231-55.926154 124.455385-124.376615 124.455385A124.219077 124.219077 0 0 1 57.536197 393.846154V176.443077l57.659077-57.107692 137.058461 126.188307 23.394462-24.654769L641.058658 577.772308V137.846154c0-11.421538 15.596308-23.394462 31.192616-23.394462h209.762461c58.289231 0 93.184 23.394462 112.403693 120.201846l69.710769 223.547077h77.508923a107.913846 107.913846 0 0 1 109.331692 108.150154zM945.107889 378.88l-39.069538-141.233231c-2.993231-14.414769-27.017846-32.452923-39.069539-32.452923h-106.338461c-12.051692 0-30.011077 28.829538-30.011077 43.323077v144.777846c0 25.206154 24.024615 43.323077 42.062769 43.323077h135.798154c18.589538 0 45.686154-32.531692 36.627692-57.737846z" p-id="3147"></path></svg>