<svg t="1611563450095" class="icon" viewBox="0 0 1325 1024" version="1.1" xmlns="http://www.w3.org/2000/svg" p-id="12533" width="250" height="250"><path d="M687.465 316.536a446.283 446.283 0 0 0-166.098 347.98c0 30.66 3.102 60.596 8.975 89.51H229.496v75.414c0 117.76-131.975 119.145-131.975 0v-75.415H0V451.132c0-81.317 60.838-124.295 95.232-128.994l86.709-238.05C198.204 38.731 233.562 0 300.183 0H755.11c66.71 0 102.068 38.731 118.362 84.088l49.483 135.921a441.605 441.605 0 0 0-81.257 15.692l-36.623-103.334c-8.162-26.293-20.42-45.357-48.881-45.658H299.219c-28.612 0.3-40.84 19.365-48.971 45.658l-65.265 184.17h502.482zM212.27 570.67c41.291 0 74.782-36.713 74.782-82.04 0-45.357-33.49-82.04-74.782-82.04s-74.812 36.683-74.812 82.04c0 45.327 33.52 82.04 74.812 82.04z" p-id="12534"></path><path d="M652.258 556.333s60.777-188.446 270.607-224.256c0 0-32.105 46.23-63.066 120.2 0 0-64.211-6.927-79.12 58.97 0 0-68.788 12.71-128.421 45.086z m129.566-6.927s-88.275 18.462-145.619 61.26c0 0-29.816 124.837 41.261 242.748 0 0 73.397 16.173 146.794 8.071 0 0 0-46.23 29.816-69.33 0 0-36.683-94.811-27.527-195.374 1.144 0-35.54-9.246-44.725-47.405z m-73.367 346.775s94.028 145.649 310.754 125.982c0 0-76.83-73.97-92.883-98.244 0 0-60.777 15.029-81.438-27.738 0 0-77.974 11.565-136.433 0z m248.832 5.782s14.909-6.927 20.631-42.767c0 0 120.41-42.767 194.921-157.214 0 0 24.095 1.145 40.147-11.565 0 0 56.17 53.158 82.553 122.519 0 0-52.736 151.431-222.45 199.98 0-1.144-76.83-52.012-115.802-110.953z m308.435-416.165s88.305 101.737 48.188 273.98c0 0-49.332-79.752-73.396-97.1 0 0 21.775-42.766-3.464-73.998 1.175 0 24.094-46.231 28.672-102.882z m-370.356-21.956s25.208 20.811 26.352 40.448c0 0 108.936 6.927 202.993 67.072 0 0 42.406-34.696 82.523-9.276 0 0 22.95-41.593 27.527-117.88 0 0-83.727-112.129-260.276-115.622 1.144-1.145-67.675 92.46-79.12 135.258zM865.55 599.07s50.447 3.494 59.633-57.766c0 0 99.75 9.247 180.013 57.796 0 0-19.486 61.26 29.817 91.317 0 0-50.447 76.288-163.99 130.62 0 0-22.92-52.013-81.409-42.767 1.145-1.144-22.92-47.405-24.094-179.2z" p-id="12535"></path></svg>