<svg t="1611563286412" class="icon" viewBox="0 0 1024 1024" version="1.1" xmlns="http://www.w3.org/2000/svg" p-id="4914" width="250" height="250"><path d="M1005.568 820.224h8.192c8.192 0.768 10.752-2.56 9.984-10.24-2.56-19.712-3.84-40.448-8.192-59.904-7.424-34.816-28.416-57.088-64-64.512-2.56-0.512-4.608-1.28-6.912-1.536-12.032-2.56-16.896-9.472-18.176-22.784-2.048-26.112-3.84-104.192-10.752-128.768-2.56-8.192-4.864-15.616-7.424-23.04-56.064-160.768-176.384-202.752-241.664-224.768-8.704-2.816-12.288 1.28-14.848 7.424-5.376 12.8-11.52 25.6-14.848 38.912-16.64 68.864-32.256 137.984-48.384 206.848v0.512c-0.512 2.56-4.096 1.536-4.096-0.512V265.728c0-7.936 0-16.128-0.768-24.064-2.56-21.504-19.456-37.12-40.96-37.632-20.992-0.512-42.24-0.512-63.232 0-17.408 0.512-29.696 8.96-36.352 24.832-3.328 8.704-4.608 18.688-4.608 28.16-0.512 91.392 0 182.016 0 273.408v3.84c0 2.048-3.328 2.816-4.096 0.512-0.512-1.536-0.768-3.328-1.28-5.376-13.568-59.136-26.368-118.016-40.448-176.64-4.864-20.224-13.312-39.68-20.736-59.392-2.56-6.656-6.656-10.752-15.616-8.192-145.92 44.288-256.512 221.44-260.096 373.76-0.512 18.944-2.816 20.992-20.736 26.368-4.608 1.28-8.96 2.56-13.568 4.096-22.784 6.656-38.912 21.504-47.872 43.008-10.24 23.552-12.8 48.384-14.08 74.752 0 7.424 5.888 13.568 13.312 13.568h6.912c328.448-0.512 656.64-0.512 985.344-0.512z" p-id="4915"></path></svg>