<svg t="1611563242051" class="icon" viewBox="0 0 1024 1024" version="1.1" xmlns="http://www.w3.org/2000/svg" p-id="4696" width="250" height="250"><path d="M286.030166 725.03544201L286.030166 1024l109.150988 0 0-298.964558 130.981187 0-185.556681-279.808559-185.556681 279.808559zM683.176038 279.808559L686.341417 1023.017641l109.150988 0-3.165378-743.209082 130.981186 1e-8-185.556681-279.80855901-185.55668 279.808559z" p-id="4697"></path><path d="M591.925811 399.11058999l-491.17944801 1e-8 1e-8-54.575494 491.179448 0z" p-id="4698"></path><path d="M337.385706 137.912274l88.139423-88.193999 50.373182 50.42775699-88.139424 88.13942301 88.139424 88.139424-50.373182 50.373181-88.139423-88.13942301-88.139423 88.13942301-50.427757-50.373181 88.193999-88.139424-88.193999-88.139423 50.427757-50.373181z" p-id="4699"></path></svg>