<svg t="1611563521650" class="icon" viewBox="0 0 1024 1024" version="1.1" xmlns="http://www.w3.org/2000/svg" p-id="16689" width="250" height="250"><path d="M751.616 422.4c43.008-9.728 80.384-36.352 103.936-73.728 23.552-37.888 31.232-83.456 21.504-126.464-20.992-88.576-108.032-143.36-195.072-122.88s-142.336 108.032-122.88 197.12c18.944 88.064 104.96 144.896 192.512 125.952z m-58.88-285.696c30.72-6.144 62.464 0 89.088 17.92 26.112 17.92 44.032 45.568 49.664 76.8 14.336 65.024-25.6 129.536-89.6 144.896-30.72 6.144-62.464 0-89.088-17.92-26.112-17.92-44.032-45.568-49.664-76.8-14.336-65.024 25.6-129.536 89.6-144.896z m178.176 346.112h-39.424l-12.8-34.816c-21.504 12.288-45.056 20.48-69.632 24.576 2.048 6.656 3.584 8.704 5.632 15.36 1.536 6.656-91.136-10.752-289.28-10.752-96.256-1.536-193.024 2.048-289.28 10.752 13.312-56.32 32.256-111.104 55.808-163.84 4.608-11.264 1.024-38.912 232.96-38.912 13.312 0 26.624 0 38.4 0.512-1.024-10.24-1.536-20.992-1.024-31.232 0.512-11.776 2.048-24.064 4.608-35.84-14.336 0-28.16-0.512-42.496-0.512-153.6 0-199.68 10.752-199.68 10.752-36.352 7.168-77.312 25.6-94.72 58.88-8.192 15.872-43.52 114.688-72.192 194.56h-38.4c-18.432 1.024-34.304 12.8-40.96 29.696l-10.24 51.2c-2.56 6.656-2.048 14.336 2.048 20.48 4.096 6.144 10.752 9.728 17.92 9.216h45.568c-3.072 9.216-7.68 16.896-8.704 22.016-2.048 8.192-2.56 16.896-2.56 25.6v256.512c0 17.408 14.848 31.744 32.256 31.744h123.904c17.408 0 32.256-13.824 32.256-31.744v-56.32h425.984v56.32c0.512 17.408 14.848 31.744 32.256 31.744h128c16.384 0 29.696-13.312 29.696-29.696v-258.56c0.512-11.776-1.024-23.552-5.12-34.816-2.048-4.096-4.096-8.704-6.144-12.8h46.08c16.896 0 20.48-11.264 19.968-29.696l-10.24-51.2c-6.656-16.384-22.528-28.16-40.448-29.184z m-586.752 245.76h-50.688c-45.056 0-90.112-6.656-90.112-37.376v-34.304c0-36.352 19.456-37.888 40.448-37.888 20.48 0 60.928 18.944 87.552 31.744 29.184 14.336 61.44 22.528 61.44 46.08 0.512 22.016-10.752 31.744-48.64 31.744z m501.76-37.376c0 31.232-45.056 37.888-90.112 37.888H645.12c-37.888 0-49.152-9.728-49.152-31.744 0-23.552 32.768-31.744 61.952-46.08 26.624-12.8 67.072-31.744 87.552-31.744 20.992 0 40.448 1.536 40.448 37.888v33.792zM1003.52 400.384l-90.112-60.928c-13.312-9.216-31.232-5.632-40.448 7.168-0.512 0.512-0.512 1.024-1.024 1.536l-10.752 17.408c-8.704 14.336-5.12 33.28 9.216 43.008l90.112 61.44c13.312 9.216 31.232 6.144 40.448-7.168 0.512-0.512 1.024-1.024 1.024-2.048l10.752-17.408c8.704-13.824 4.608-32.768-9.216-43.008z" p-id="16690"></path></svg>