<?xml version="1.0" standalone="no"?><!DOCTYPE svg PUBLIC "-//W3C//DTD SVG 1.1//EN" "http://www.w3.org/Graphics/SVG/1.1/DTD/svg11.dtd"><svg t="1586770497872" class="icon" viewBox="0 0 1024 1024" version="1.1" xmlns="http://www.w3.org/2000/svg" p-id="2415" xmlns:xlink="http://www.w3.org/1999/xlink" width="200" height="200"><defs><style type="text/css"></style></defs><path d="M105.6 592.8l32-8.8 42.4 159.2 16.8 64c4.8 17.6 23.2 28 40.8 23.2 17.6-4.8 28-22.4 23.2-40l-8.8-32 574.4-153.6L776 414.4l32-8.8c17.6-4.8 28-22.4 23.2-40-4.8-17.6-23.2-28-40.8-23.2l-32 8.8-115.2-174.4c-18.4-26.4-45.6-56-80.8-46.4L180 232c-35.2 9.6-41.6 51.2-46.4 80.8l-12.8 208-32 8.8c-17.6 4.8-28 22.4-23.2 40 4 17.6 22.4 28 40 23.2z m193.6 84.8c-35.2 9.6-71.2-11.2-80.8-46.4-9.6-35.2 11.2-71.2 46.4-80.8 35.2-9.6 71.2 11.2 80.8 46.4 9.6 35.2-11.2 71.2-46.4 80.8z m429.6-183.2c9.6 35.2-11.2 71.2-46.4 80.8-35.2 9.6-71.2-11.2-80.8-46.4C592 493.6 612.8 457.6 648 448c35.2-9.6 71.2 11.2 80.8 46.4zM205.6 328c2.4-12.8 5.6-36 23.2-40l319.2-85.6c17.6-4.8 30.4 9.6 40.8 23.2L695.2 368 236 490.4 184 504l21.6-176zM960 736c0-52.8-43.2-96-96-96s-96 43.2-96 96 43.2 96 96 96 96-43.2 96-96z m-32 96H96c-17.6 0-32 14.4-32 32s14.4 32 32 32h832c17.6 0 32-14.4 32-32s-14.4-32-32-32z" p-id="2416"></path></svg>