<?xml version="1.0" standalone="no"?><!DOCTYPE svg PUBLIC "-//W3C//DTD SVG 1.1//EN" "http://www.w3.org/Graphics/SVG/1.1/DTD/svg11.dtd"><svg t="1586770517245" class="icon" viewBox="0 0 1024 1024" version="1.1" xmlns="http://www.w3.org/2000/svg" p-id="2683" xmlns:xlink="http://www.w3.org/1999/xlink" width="200" height="200"><defs><style type="text/css"></style></defs><path d="M519.248 96.304c37.104 0 67.256 30.568 67.256 68.184s-30.16 68.184-67.256 68.184c-37.112 0-67.256-30.568-67.256-68.184s30.144-68.184 67.256-68.184z m229.6 420.88C785.944 517.184 928 896 928 896H477.504s38.272-97.832 70.736-182.48c10.432-28.208 53.344 1.168 78.848-28.208 51.024-57.616 57.984-168.128 121.76-168.128z m-302.656-297.44c46.384 10.584 49.856 54.08 49.856 54.08L496 512l144 72c22.624 11.312 9.848 40.92-8 32-64-32-220.6-107.04-220.6-107.04l55.664 114.04L458.952 896h-46.384l-10.44-247.144L320.96 553.64 147.016 896H96l168-464-48-24-32-16s12.84-27.272 16-32c42.2-63.176 64.912-114.44 115.16-129.672 25.328-7.672 90.448-18.816 131.032-10.584zM448 488V400l-40 64 40 24zM280 400l65.312-115.592H309.36L240 376l40 24z" p-id="2684"></path><path d="M626.52 630.528c7.472 3.64 16.56 0.512 20.2-6.96l16.968-34.816a15.152 15.152 0 0 0-6.96-20.2 15.152 15.152 0 0 0-20.2 6.96l-16.968 34.816a15.16 15.16 0 0 0 6.96 20.2z" p-id="2685"></path></svg>