<?xml version="1.0" standalone="no"?><!DOCTYPE svg PUBLIC "-//W3C//DTD SVG 1.1//EN" "http://www.w3.org/Graphics/SVG/1.1/DTD/svg11.dtd"><svg t="1586770538366" class="icon" viewBox="0 0 1024 1024" version="1.1" xmlns="http://www.w3.org/2000/svg" p-id="2952" xmlns:xlink="http://www.w3.org/1999/xlink" width="200" height="200"><defs><style type="text/css"></style></defs><path d="M864 128l-0.064 0.008c-0.424-0.016-9.536-0.344-17.408 5.216l-0.304 0.208-0.184 0.128C779.792 180.344 749.928 192 673.656 192 633.248 192 583 160.424 544 138.992 490.32 109.496 420 64 330.984 64c-65.112 0-151.144 41.96-188.704 69.4l-0.352 0.248c-0.488 0.36-1.072 0.744-1.544 1.104-0.808 0.608-1.408 1.28-2.112 1.92-0.368 0.344-0.76 0.648-1.104 1.008a31.12 31.12 0 0 0-8.44 15.656l-0.088 0.392c-0.728 3.68-0.64 6.272-0.64 6.272v768c0 17.6 14.4 32 32 32s32-14.4 32-32V619.464c33.544-18.808 88.248-44.304 138.32-44.304 91.68 0 157.096 49.264 181.696 63.52 31.752 18.408 95.728 58.176 164.304 64.48 72.88 6.696 163.816-39.32 205.192-68.448 0.248-0.16 0.48-0.328 0.72-0.496l1.088-0.752c0.968-0.688 1.728-1.488 2.544-2.256 0.28-0.264 0.6-0.496 0.872-0.768a27.92 27.92 0 0 0 3.408-4.128c0.136-0.2 0.304-0.376 0.44-0.576 0.344-0.536 0.576-1.072 0.88-1.616 2.152-3.648 3.568-7.72 4.128-12.096 0.36-2.384 0.408-4.024 0.408-4.024V160c0-17.6-14.4-32-32-32z" p-id="2953"></path></svg>