<svg t="1611561544078" class="icon" viewBox="0 0 1040 1024" version="1.1" xmlns="http://www.w3.org/2000/svg" p-id="2037" width="250" height="250"><path d="M573.917 0c63.349 6.54 63.206 156.247-1.76 157.077-12.478-4.476-25.912-10.237-31.694-21.192C522.5 101.91 537.17 13.205 561.59 3.516zM274.589 123.545c27.801 2.046 105.176 69.962 98.61 100.6-3.693 17.197-16.694 24.057-28.173 33.533-38.346 1.034-120.638-68.107-103.883-107.66 6.92-16.374 17.279-19.094 33.446-26.473z m596.896 0l19.368 1.765c9.597 10.687 28.977 20.375 24.652 44.115-4.113 22.59-74.775 100.454-107.404 86.501-12.91-5.254-18.1-15.055-26.413-24.709-0.783-53.89 52.852-90.389 89.797-107.672zM577.438 845.397c162.968 2.997 246.056-134.38 147.916-255.914-24.505-30.336-91.777-58.634-147.916-44.115-16.604 4.295-32.188 20.47-49.306 17.646-3.378-30.228-19.428-54.098-33.454-74.123-77.025-109.986-224.96-133.679-339.824-42.36-31.201 24.805-50.17 62.658-63.388 105.895-47.714 155.793 59.508 261.696 177.833 289.446l1.765 3.53c-7.53 19.938-11.146 56.467-22.893 75.89C162.604 887.16 99.97 863.005 52.726 792.455c-117.3-175.165-24.12-396.31 135.582-462.405 35.405-14.657 95.298-32.702 147.917-22.944l59.867 10.588c62.839-85.732 207.802-117.287 311.655-47.654 43.956 29.475 115.514 121.62 102.123 204.73l-15.847 72.363c99.399 108.56 44.98 262.142-45.78 335.335-12.18 9.822-124.476 66.126-153.185 40.59a440.554 440.554 0 0 1-17.62-77.665z m-28.174-533.003c-27.365 13.931-63.751 17.106-77.47 44.116 45.953 16.91 79.667 69.408 105.644 107.66a243.016 243.016 0 0 1 146.143 24.708l3.52-1.764c1.943-117.032-60.706-176.575-177.837-174.724zM908.46 423.583c59.75-1.233 100.233-8.373 128.519 24.709 1.34 20.561-0.346 38.134-14.057 47.653-12.499 8.65-35.422 7.059-56.36 7.059-78.85 0-112.888-27.166-58.102-79.425zM418.972 788.916h8.806c32.2 46.81 131.801 100.397 77.474 183.55-17.3 26.453-35.253 40.83-70.433 49.419-66.057 16.128-121.058-63.41-105.644-123.545 12.426-48.497 62.437-74.235 89.797-109.424z" p-id="2038"></path></svg>