<?xml version="1.0" standalone="no"?><!DOCTYPE svg PUBLIC "-//W3C//DTD SVG 1.1//EN" "http://www.w3.org/Graphics/SVG/1.1/DTD/svg11.dtd"><svg t="1595554916983" class="icon" viewBox="0 0 1024 1024" version="1.1" xmlns="http://www.w3.org/2000/svg" p-id="5429" xmlns:xlink="http://www.w3.org/1999/xlink" width="200" height="200"><defs><style type="text/css"></style></defs><path d="M512 64C264.576 64 64 264.576 64 512s200.576 448 448 448 448-200.576 448-448S759.424 64 512 64z m388.264 448c0 95.888-34.832 183.6-92.44 251.336L695.24 650.752a59.648 59.648 0 0 0 25.832-49.152V482.136h29.864a29.864 29.864 0 0 0 0-59.736h-29.864l-59.736-119.464C649.832 281.608 634.592 243.2 601.6 243.2H422.4c-32.992 0-47.544 34.6-59.736 59.736l-5.08 10.16-96.92-96.92C328.4 158.568 416.112 123.736 512 123.736c214.44 0 388.264 173.824 388.264 388.264zM422.4 512a29.864 29.864 0 1 1-59.728 0 29.864 29.864 0 0 1 59.728 0z m-59.736-89.6l6.336-12.672L381.68 422.4h-19.016z m34.744-69.48l24.992-49.984h179.2L661.336 422.4H466.888l-69.48-69.48zM661.336 512a29.864 29.864 0 1 1-59.72 0 29.864 29.864 0 0 1 59.72 0z m-537.6 0c0-96.856 35.544-185.344 94.192-253.36l111.256 111.256-26.248 52.504h-29.864a29.864 29.864 0 0 0 0 59.728h29.864V601.6a59.736 59.736 0 0 0 59.736 59.736V691.2a29.864 29.864 0 0 0 59.728 0v-29.864h179.2V691.2a29.864 29.864 0 0 0 29.864 29.864 29.76 29.76 0 0 0 28.256-20.624L765.36 806.08c-68.008 58.648-156.504 94.192-253.36 94.192-214.44-0.008-388.264-173.84-388.264-388.272z" p-id="5430"></path></svg>