<?xml version="1.0" standalone="no"?><!DOCTYPE svg PUBLIC "-//W3C//DTD SVG 1.1//EN" "http://www.w3.org/Graphics/SVG/1.1/DTD/svg11.dtd"><svg t="1586770491970" class="icon" viewBox="0 0 1024 1024" version="1.1" xmlns="http://www.w3.org/2000/svg" p-id="2281" xmlns:xlink="http://www.w3.org/1999/xlink" width="200" height="200"><defs><style type="text/css"></style></defs><path d="M900.288 342.472c-7.512-13.464-24.176-18.072-37.2-10.304l-23.576 14.088-0.008-0.008-41.064-73.52L689.728 78.096c-7.52-13.464-24.176-18.072-37.2-10.304-13.016 7.776-17.488 24.992-9.968 38.456l13.616 24.384-471.68 281.48-13.616-24.384c-7.512-13.464-24.168-18.072-37.2-10.304-13.024 7.776-17.488 24.992-9.968 38.456l40.832 73.104 0.008 0.024L273.472 684l-23.568 14.096c-13.024 7.776-17.488 24.992-9.968 38.456 7.528 13.464 24.176 18.072 37.2 10.304l46.656-27.904c0.168-0.096 0.344-0.136 0.512-0.24 0.152-0.096 0.272-0.224 0.416-0.32l22.216-13.288c0.312-0.176 0.64-0.288 0.952-0.472l128.872 118.112c20.472 15.56 48.344 36.152 74.392 20.608l283.008-168.896c26.048-15.544 22.104-48.392 19.936-76.896l-34.52-174.368 70.744-42.264c13.024-7.776 17.488-24.992 9.968-38.456zM663.472 256.28c26.048-15.544 59.36-6.328 74.392 20.6 15.04 26.92 6.112 61.352-19.936 76.896-26.048 15.544-59.36 6.32-74.4-20.6-15.032-26.92-6.112-61.352 19.944-76.896z m-322.88 322.696c-26.048 15.544-59.36 6.32-74.4-20.608-15.04-26.92-6.112-61.36 19.944-76.904 26.04-15.544 59.36-6.312 74.392 20.608 15.04 26.928 6.112 61.352-19.936 76.904zM523.92 794.6L395.056 676.48 772.4 451.296l34.528 174.408L523.92 794.6z m295.72 109.336H203.144a28.024 28.024 0 1 0 0 56.048h616.496a28.024 28.024 0 0 0 0-56.048z" p-id="2282"></path></svg>