<?xml version="1.0" standalone="no"?><!DOCTYPE svg PUBLIC "-//W3C//DTD SVG 1.1//EN" "http://www.w3.org/Graphics/SVG/1.1/DTD/svg11.dtd"><svg t="1586770510474" class="icon" viewBox="0 0 1024 1024" version="1.1" xmlns="http://www.w3.org/2000/svg" p-id="2549" xmlns:xlink="http://www.w3.org/1999/xlink" width="200" height="200"><defs><style type="text/css"></style></defs><path d="M128 96v832a32 32 0 0 0 32 32h32V64h-32a32 32 0 0 0-32 32z m128 864h512V64H256v896z m128-768h256v128H384V192z m0 256h256v128H384V448z m0 256h256v128H384V704z m480-640h-32v896h32a32 32 0 0 0 32-32V96a32 32 0 0 0-32-32z" p-id="2550"></path></svg>