<?xml version="1.0" standalone="no"?><!DOCTYPE svg PUBLIC "-//W3C//DTD SVG 1.1//EN" "http://www.w3.org/Graphics/SVG/1.1/DTD/svg11.dtd"><svg t="1586771189179" class="icon" viewBox="0 0 1024 1024" version="1.1" xmlns="http://www.w3.org/2000/svg" p-id="4048" xmlns:xlink="http://www.w3.org/1999/xlink" width="200" height="200"><defs><style type="text/css"></style></defs><path d="M416 544H160c-35.2 0-64 28.8-64 64v256c0 35.2 28.8 64 64 64h256c35.2 0 64-28.8 64-64V608c0-35.2-28.8-64-64-64z m0 320H160V608h256v256z m448-320H608c-35.2 0-64 28.8-64 64v256c0 35.2 28.8 64 64 64h256c35.2 0 64-28.8 64-64V608c0-35.2-28.8-64-64-64z m0 320H608V608h256v256z m0-768H608c-35.2 0-64 28.8-64 64v256c0 35.2 28.8 64 64 64h256c35.2 0 64-28.8 64-64V160c0-35.2-28.8-64-64-64z m0 320H608V160h256v256zM416 96H160c-35.2 0-64 28.8-64 64v256c0 35.2 28.8 64 64 64h256c35.2 0 64-28.8 64-64V160c0-35.2-28.8-64-64-64z m0 320H160V160h256v256z" p-id="4049"></path></svg>