<?xml version="1.0" standalone="no"?><!DOCTYPE svg PUBLIC "-//W3C//DTD SVG 1.1//EN" "http://www.w3.org/Graphics/SVG/1.1/DTD/svg11.dtd"><svg t="1586770556305" class="icon" viewBox="0 0 1024 1024" version="1.1" xmlns="http://www.w3.org/2000/svg" p-id="3220" xmlns:xlink="http://www.w3.org/1999/xlink" width="200" height="200"><defs><style type="text/css"></style></defs><path d="M185.144 185.144h653.712a29.712 29.712 0 0 0 0-59.424H185.144a29.712 29.712 0 0 0 0 59.424z m624 59.424H214.856C149.216 244.568 96 297.784 96 363.432v416c0 65.648 53.216 118.856 118.856 118.856h594.288c65.648 0 118.856-53.216 118.856-118.856v-416c0-65.648-53.216-118.864-118.856-118.864zM649.296 663.76h-99.04v79.024c1.904 12.648-4.992 25.088-17.712 31.928-12.72 6.832-28.96 6.832-41.68 0-12.72-6.84-19.624-19.28-17.712-31.928V661.632h-98.4c-21.112 0-38.232-14.48-38.232-32.344 0-17.872 17.12-32.36 38.232-32.36h99.04v-44.552h-99.04c-10.664 0.752-21.216-2.328-29.08-8.48-7.864-6.152-12.312-14.808-12.28-23.864 1.016-18.544 19.448-32.952 41.36-32.352h55.16l-19.432-32.352-23.816-41.896c-5.48-7.656-7.104-16.84-4.52-25.512 2.592-8.68 9.184-16.104 18.304-20.632 18.688-5 38.976 1.608 48.888 15.912l19.432 32.344 19.424 32.36 19.432 35 19.432-35 19.424-32.36 19.432-32.344c9.088-16.616 32.92-25.04 52.024-16.44 19.52 8.776 26.408 25.288 16.464 49.568l-17.216 34.472-18.68 36.352h52.032c21.112 0 38.232 14.48 38.232 32.352 0 17.864-17.112 32.352-38.232 32.352H553.4v46.672l95.896 0.528c10.664-0.744 21.224 2.344 29.088 8.488 7.864 6.152 12.32 14.808 12.28 23.864-1.016 18.536-19.44 32.952-41.368 32.352z" p-id="3221"></path></svg>