<svg xmlns="http://www.w3.org/2000/svg" viewBox="0 0 128 128"><path d="M80.3 93c-1.2-1-2.8-1.4-4.3-1.1h-1.5l.9-1.1c.9-.9 1.4-2.1 1.4-3.3 0-1.3-.5-2.5-1.4-3.3-1.3-1.4-3.4-1.8-5.1-1.1l-1.7.6 1.1-1.5c1.4-1.9 1.1-4.6-.6-6.2-.9-.9-2.2-1.5-3.5-1.5-1.3 0-2.6.5-3.5 1.5l-2.3 2.3.7-2.3c.5-1.7.1-3.6-1.1-4.9-.9-.9-2.1-1.3-3.3-1.3H55c-.9.2-1.7.7-2.3 1.3l-5.9 5.8c-.1.1-.2.2-.3.4-1.6 2-1.5 4.9.4 6.7 1.5 1.5 3.8 1.9 5.7.9L54 84l-.7 1.5c-1.3 1.9-1.1 4.5.6 6.1 1.6 1.6 4.2 1.9 6.1.6l1.6-.7-.7 1.5c-.3.7-.5 1.4-.5 2.1 0 1.3.5 2.6 1.5 3.5 1.5 1.5 3.8 1.8 5.7.9l1.5-.7-.7 1.5c-.6 1.5-.5 3.2.4 4.5.9 1.3 2.4 2.2 4 2.2 1.4 0 2.7-.6 3.6-1.6l4.8-5.7c.8-1 1.3-2.3 1.1-3.5-.3-1.3-1-2.4-2-3.2zm37.8-44.9L101 31.2 86.4 45.7H63.9c-1.5 0-3 .6-4.1 1.7l-4.9 4.9-2.5 2.1c-1.4 1.4-1.9 3.4-1.4 5.4.1.6.4 1.2.7 1.7l.8 1.1c1.1 1 2.5 1.5 3.9 1.5h.6c1.3-.1 2.6-.7 3.5-1.7l5.8-5.4h12.3l4.4 4.2 15.6 15.4 19.5-19.3c2.5-2.5 2.5-6.6 0-9.2z"/><path d="M48.9 68c.5-.5 1-.9 1.6-1.3l-.8-.3c-.6-.6-1.1-1.2-1.5-1.9-1-1.4-1.7-3-1.9-4.7-.4-3 .7-6.1 3-8.1l2.3-2.1 4.8-4.8.8-.7c2.1-8.4-.5-17.3-6.7-23.3-7.3-7.2-18.2-9.2-27.6-5.1l13.4 13.4C38 30.8 39 33 39 35.4s-1 4.7-2.7 6.3c-3.6 3.5-9.3 3.5-12.8 0L10.1 28.2C6 37.5 8 48.4 15.3 55.5c6.1 6.2 15 8.7 23.5 6.7l8.2 8.2 1.9-2.4zm27-6.3h-7.7l-4.3 4c-1.3 1.1-2.2 1.7-2.1 1.7.7.7 1.2 1.5 1.7 2.3h1.3c2.5 0 4.9 1 6.7 2.8 1.6 1.6 2.6 3.7 2.8 6 1.4.5 2.6 1.2 3.7 2.2 1.9 1.9 2.9 4.6 2.7 7.4l1.5.9c2 1.7 3.2 4.1 3.3 6.7.2 2.4-.6 4.8-2.1 6.7L82 104l6.7 6.7c5.1 5 13.2 5 18.3 0 2.5-2.3 3.8-5.6 3.8-9 0-3.4-1.4-6.6-3.8-9l-31.1-31z"/></svg>