<svg t="1611561613589" class="icon" viewBox="0 0 1024 1024" version="1.1" xmlns="http://www.w3.org/2000/svg" p-id="2854" width="250" height="250"><path d="M401.653959 974.849229l49.099572-167.59901a99.402315 99.402315 0 0 1 29.464864-46.360441l125.948851-125.001675a902.01905 902.01905 0 0 0-30.104848-10.598135c-6.271843-2.047949-46.130047-20.044299-21.19627-95.869604h-0.409589c64.894378-66.942326 114.505937-174.715632 114.505937-280.79938C668.962476 85.527462 560.677183 0.025599 434.856329 0.025599 308.984275 0.025599 201.364566 85.527462 201.364566 248.620984c0 106.493338 49.304367 214.727432 114.582735 281.516163 25.394565 66.839929-20.044299 91.671308-29.567261 95.152821C154.594535 673.032774 0 760.070598 0 845.98205v32.178396c0 110.333242 201.287768 140.284493 399.99 143.356416a100.323892 100.323892 0 0 1 1.663959-46.667633z m456.846178-298.130147l-0.255993 0.255994-38.475838-38.655034 0.204795-0.230394-51.531512-51.582711-234.336542 232.749382a20.325892 20.325892 0 0 0-7.19342 10.162946l-49.150771 167.829404a20.81228 20.81228 0 0 0 25.778556 25.906552l167.547811-49.304367a19.762706 19.762706 0 0 0 9.57416-6.604635l234.950927-233.312567-57.112173-57.21457z m-228.832679 193.377566l3.071924 54.065848 13.56766 13.567661-90.135346 26.469738-19.634709-19.660308 26.444138-90.288943 11.314918 11.314917 55.371415 4.531087z m160.072798-307.013125l147.196321 147.426714 33.663158-31.615209-147.19632-147.452314-33.663159 31.640809z m219.565711-2.124747l-70.577435-70.628634a49.483563 49.483563 0 0 0-70.091048-0.383991l-21.657059 21.913053 141.052474 141.308467 21.60586-21.938652c19.250719-19.276318 19.097123-50.712332-0.332792-70.270243z" p-id="2855"></path></svg>