<?xml version="1.0" standalone="no"?><!DOCTYPE svg PUBLIC "-//W3C//DTD SVG 1.1//EN" "http://www.w3.org/Graphics/SVG/1.1/DTD/svg11.dtd"><svg t="1586770532147" class="icon" viewBox="0 0 1024 1024" version="1.1" xmlns="http://www.w3.org/2000/svg" p-id="2818" xmlns:xlink="http://www.w3.org/1999/xlink" width="200" height="200"><defs><style type="text/css"></style></defs><path d="M796 372v-7.2c0-128-103.2-232-232-232-92 0-172 53.6-208.8 132-16-8-34.4-12.8-53.6-12.8-59.2 0-108 43.2-116.8 100C115.2 375.2 64 441.6 64 520c0 98.4 80 179.2 179.2 179.2h553.6c90.4-0.8 163.2-73.6 163.2-164-0.8-89.6-73.6-163.2-164-163.2z m-130.4-16.8L552.8 432l57.6 24.8c6.4 2.4 11.2 9.6 12 16 0.8 7.2-1.6 13.6-8 18.4l-224 163.2c-6.4 4.8-16 5.6-22.4 0.8-9.6-5.6-12.8-18.4-7.2-28l76-128.8-52.8-23.2c-5.6-2.4-9.6-7.2-11.2-12.8-1.6-5.6-0.8-12 2.4-16.8l124-180.8c5.6-8 16-11.2 24.8-7.2l139.2 60.8c6.4 2.4 11.2 9.6 12 16.8 0 8.8-4 16-9.6 20zM387.2 716s-55.2 59.2-60.8 106.4v6.4c0 35.2 28.8 62.4 64 62.4s64-28 64-62.4v-7.2c-1.6-16-11.2-57.6-67.2-105.6z m263.2 0s-55.2 59.2-60.8 106.4v6.4c0 35.2 28.8 62.4 64 62.4s64-28 64-62.4v-7.2c-2.4-16-11.2-57.6-67.2-105.6z m0-1.6" p-id="2819"></path></svg>