<svg t="1612236872544" class="icon" viewBox="0 0 1024 1024" version="1.1" xmlns="http://www.w3.org/2000/svg" p-id="2007" width="250" height="250"><path d="M399.36 264.704h313.856c20.48 0 37.376-16.896 37.376-37.376v-41.472c0-20.48-16.896-37.376-37.376-37.376H399.36c-20.48 0-37.376 16.896-37.376 37.376v41.472c0 20.48 16.896 37.376 37.376 37.376z m172.544-87.04H691.2V235.52h-119.296V177.664z m387.584 348.672v-20.992c0-20.48-16.896-37.376-37.376-37.376h-81.92v-29.184l-119.296-145.408H392.704L273.408 439.296v29.184H101.888c-20.48 0-37.376 16.896-37.376 37.376v20.992h120.32v57.344H64.512v138.24c0 20.48 16.896 37.376 37.376 37.376h52.736c-0.512-5.12-1.024-9.728-1.024-14.848 0-72.192 60.416-131.072 134.656-131.072s134.656 58.88 134.656 131.072c0 5.12-0.512 9.728-1.024 14.848h179.712c-0.512-5.12-1.024-9.728-1.024-14.848 0-72.192 60.416-131.072 134.656-131.072s134.656 58.88 134.656 131.072c0 5.12-0.512 9.728-1.024 14.848H921.6c20.48 0 37.376-16.896 37.376-37.376v-138.24h-29.696v-57.344h30.208z m-388.608 57.856H512v-57.344h58.88v57.344z m0-115.712H332.8v-29.184l89.6-87.04h148.48v116.224z m91.136 115.712h-60.928v-57.344h60.928v57.344z m118.272-115.712h-148.48V352.256H691.2l89.6 87.04v29.184z m-44.544 203.264c-57.344 0-103.424 45.568-103.424 101.888 0 56.32 46.592 101.888 103.424 101.888 57.344 0 103.424-45.568 103.424-101.888 0-56.32-46.08-101.888-103.424-101.888z m0 144.896c-24.576 0-44.544-19.456-44.544-43.008 0-24.064 19.968-43.008 44.544-43.008 24.576 0 44.544 19.456 44.544 43.008 0 24.064-19.968 43.008-44.544 43.008z m-447.488-144.896c-57.344 0-103.424 45.568-103.424 101.888 0 56.32 46.592 101.888 103.424 101.888 57.344 0 103.424-45.568 103.424-101.888 0-56.32-46.08-101.888-103.424-101.888z m0 144.896c-24.576 0-44.544-19.456-44.544-43.008 0-24.064 19.968-43.008 44.544-43.008 24.576 0 44.544 19.456 44.544 43.008 0 24.064-19.968 43.008-44.544 43.008z" p-id="2008"></path></svg>